<svg id="svg" version="1.1" xmlns="http://www.w3.org/2000/svg" xmlns:xlink="http://www.w3.org/1999/xlink" width="400" height="400" viewBox="0, 0, 400,400"><g id="svgg"><path id="path0" d="M49.888 90.533 C 49.730 90.936,49.600 103.231,49.600 117.856 C 49.600 143.911,49.694 145.898,50.787 143.059 C 51.102 142.241,51.140 142.257,51.583 143.400 C 54.290 150.383,59.529 157.378,66.358 163.124 C 67.584 164.156,68.950 165.327,69.394 165.726 C 73.006 168.981,85.165 176.058,93.600 179.815 C 99.976 182.655,99.603 182.499,103.600 184.002 C 119.838 190.104,134.257 193.640,157.400 197.192 C 166.445 198.581,184.923 200.000,193.959 200.000 L 200.000 200.000 199.999 208.100 L 199.999 216.200 208.299 215.927 C 219.356 215.564,231.865 214.644,239.600 213.625 C 241.250 213.408,244.117 213.038,245.971 212.805 C 249.043 212.417,252.833 211.788,258.200 210.774 C 259.300 210.566,261.235 210.282,262.500 210.143 C 263.765 210.003,264.800 209.734,264.800 209.544 C 264.800 209.355,265.509 209.200,266.376 209.200 C 267.243 209.200,268.064 209.020,268.200 208.800 C 268.336 208.580,269.146 208.400,270.000 208.400 C 270.854 208.400,271.664 208.220,271.800 208.000 C 271.936 207.780,272.667 207.600,273.424 207.600 C 274.181 207.600,274.800 207.420,274.800 207.200 C 274.800 206.980,275.520 206.800,276.400 206.800 C 277.280 206.800,278.000 206.620,278.000 206.400 C 278.000 206.180,278.529 206.000,279.176 206.000 C 279.823 206.000,280.464 205.820,280.600 205.600 C 280.736 205.380,281.366 205.200,282.000 205.200 C 282.634 205.200,283.264 205.020,283.400 204.800 C 283.536 204.580,284.076 204.400,284.600 204.400 C 285.124 204.400,285.664 204.220,285.800 204.000 C 285.936 203.780,286.476 203.600,287.000 203.600 C 287.524 203.600,288.064 203.420,288.200 203.200 C 288.336 202.980,288.876 202.800,289.400 202.800 C 289.924 202.800,290.464 202.620,290.600 202.400 C 290.736 202.180,291.276 202.000,291.800 202.000 C 292.324 202.000,292.864 201.820,293.000 201.600 C 293.136 201.380,293.687 201.200,294.224 201.200 C 294.761 201.200,295.200 201.020,295.200 200.800 C 295.200 200.580,295.562 200.400,296.005 200.400 C 296.448 200.400,297.123 200.241,297.505 200.047 C 297.887 199.852,298.650 199.511,299.200 199.287 C 299.750 199.064,300.830 198.607,301.600 198.272 C 302.370 197.937,303.900 197.307,305.000 196.873 C 307.943 195.711,314.179 192.659,314.333 192.306 C 314.407 192.138,314.812 192.000,315.233 192.000 C 315.655 192.000,316.000 191.841,316.000 191.647 C 316.000 191.452,316.315 191.190,316.700 191.064 C 317.500 190.802,320.488 189.068,322.062 187.953 C 322.646 187.539,323.321 187.200,323.562 187.200 C 323.803 187.200,324.000 187.050,324.000 186.868 C 324.000 186.685,324.492 186.280,325.094 185.968 C 326.344 185.319,326.218 185.414,330.941 181.595 C 334.850 178.434,340.400 173.042,340.400 172.406 C 340.400 172.183,340.580 172.000,340.800 172.000 C 341.020 172.000,341.200 171.770,341.200 171.488 C 341.200 171.207,341.560 170.717,342.000 170.400 C 342.440 170.083,342.800 169.593,342.800 169.312 C 342.800 169.030,342.935 168.799,343.100 168.797 C 343.265 168.795,343.595 168.390,343.833 167.897 C 344.071 167.404,344.719 166.190,345.273 165.200 C 345.827 164.210,346.786 162.095,347.403 160.500 C 348.038 158.862,348.764 157.600,349.073 157.600 C 350.448 157.600,351.142 146.770,349.800 146.255 C 349.470 146.129,349.200 145.637,349.200 145.164 C 349.200 144.443,349.102 144.384,348.600 144.800 C 348.270 145.074,348.000 145.529,348.000 145.811 C 348.000 146.441,346.315 149.749,345.900 149.933 C 345.735 150.007,345.600 150.244,345.600 150.461 C 345.600 150.824,343.351 154.339,342.824 154.800 C 342.698 154.910,342.123 155.630,341.545 156.400 C 339.637 158.943,334.746 163.676,331.200 166.412 C 330.210 167.175,329.310 167.901,329.200 168.024 C 328.713 168.569,321.999 172.800,321.621 172.800 C 321.389 172.800,321.200 172.959,321.200 173.153 C 321.200 173.348,320.885 173.610,320.500 173.736 C 320.115 173.862,318.900 174.506,317.800 175.168 C 316.700 175.831,313.730 177.385,311.200 178.622 C 308.670 179.859,306.287 181.035,305.905 181.236 C 305.523 181.436,304.938 181.600,304.605 181.600 C 304.272 181.600,304.000 181.780,304.000 182.000 C 304.000 182.220,303.728 182.400,303.395 182.400 C 303.062 182.400,302.477 182.559,302.095 182.753 C 301.713 182.948,300.860 183.332,300.200 183.607 C 299.540 183.882,298.640 184.262,298.200 184.451 C 296.034 185.383,281.354 190.000,280.559 190.000 C 280.058 190.000,279.536 190.180,279.400 190.400 C 279.264 190.620,278.634 190.800,278.000 190.800 C 277.366 190.800,276.736 190.980,276.600 191.200 C 276.464 191.420,275.744 191.600,275.000 191.600 C 274.256 191.600,273.536 191.780,273.400 192.000 C 273.264 192.220,272.544 192.400,271.800 192.400 C 271.056 192.400,270.336 192.580,270.200 192.800 C 270.064 193.020,269.279 193.200,268.456 193.200 C 267.633 193.200,266.789 193.362,266.580 193.559 C 266.371 193.756,265.480 194.017,264.600 194.139 C 263.720 194.260,262.010 194.556,260.800 194.795 C 243.901 198.145,228.737 199.788,210.496 200.247 C 203.080 200.433,200.651 200.374,200.196 199.996 C 199.680 199.568,199.600 196.212,199.600 174.996 L 199.600 150.489 189.700 150.247 C 172.607 149.828,159.941 148.556,143.400 145.598 C 142.080 145.362,140.280 145.067,139.400 144.943 C 138.520 144.819,137.629 144.556,137.420 144.359 C 137.211 144.162,136.277 144.000,135.344 144.000 C 134.411 144.000,133.536 143.820,133.400 143.600 C 133.264 143.380,132.544 143.200,131.800 143.200 C 131.056 143.200,130.336 143.020,130.200 142.800 C 130.064 142.580,129.254 142.400,128.400 142.400 C 127.546 142.400,126.748 142.240,126.627 142.044 C 126.506 141.849,125.821 141.591,125.104 141.473 C 122.968 141.119,121.449 140.760,120.600 140.407 C 120.160 140.225,118.709 139.788,117.377 139.438 C 110.039 137.511,100.063 133.864,92.400 130.308 C 90.970 129.645,89.350 128.899,88.800 128.652 C 88.250 128.404,87.710 128.103,87.600 127.982 C 87.490 127.861,86.410 127.269,85.200 126.665 C 83.990 126.062,82.460 125.256,81.800 124.874 C 77.444 122.354,76.264 121.623,73.400 119.669 C 71.640 118.467,70.110 117.375,70.000 117.240 C 69.890 117.106,69.080 116.466,68.200 115.819 C 64.643 113.203,58.606 106.678,55.714 102.323 C 53.071 98.341,50.773 93.357,50.311 90.600 C 50.185 89.851,50.158 89.847,49.888 90.533 M54.000 164.987 C 54.000 165.529,56.050 168.883,56.256 168.678 C 56.358 168.576,55.892 167.626,55.220 166.568 C 54.549 165.509,54.000 164.798,54.000 164.987 M57.375 170.532 C 57.991 171.339,58.576 172.000,58.675 172.000 C 58.953 172.000,57.221 169.660,56.709 169.344 C 56.459 169.189,56.759 169.724,57.375 170.532 M60.855 174.788 C 62.011 176.102,63.031 177.102,63.122 177.011 C 63.213 176.920,62.503 176.012,61.544 174.992 C 60.585 173.973,59.740 172.972,59.667 172.769 C 59.593 172.566,59.358 172.400,59.143 172.400 C 58.928 172.400,59.699 173.475,60.855 174.788 M49.900 173.431 C 49.453 173.882,49.525 227.600,49.973 227.600 C 50.178 227.600,50.460 227.240,50.600 226.800 C 51.009 225.510,51.334 225.847,52.528 228.797 C 56.582 238.812,67.830 249.550,83.000 257.889 C 87.009 260.093,94.947 264.000,95.416 264.000 C 95.522 264.000,96.417 264.360,97.404 264.800 C 98.392 265.240,100.008 265.960,100.996 266.400 C 101.983 266.840,103.033 267.200,103.329 267.200 C 103.625 267.200,103.984 267.318,104.128 267.462 C 104.424 267.757,109.680 269.642,113.600 270.859 C 129.840 275.899,149.766 279.945,166.400 281.580 C 168.710 281.807,172.400 282.170,174.600 282.386 C 176.800 282.602,182.290 282.880,186.800 283.003 C 191.310 283.126,196.132 283.325,197.516 283.447 L 200.031 283.667 199.916 291.734 L 199.800 299.800 204.400 299.506 C 206.930 299.344,212.690 299.022,217.200 298.790 C 225.958 298.340,232.354 297.848,237.200 297.251 C 238.850 297.048,241.981 296.675,244.158 296.421 C 246.335 296.167,251.056 295.428,254.648 294.780 C 258.240 294.131,261.623 293.600,262.166 293.600 C 262.709 293.600,263.264 293.420,263.400 293.200 C 263.536 292.980,264.447 292.800,265.424 292.800 C 266.401 292.800,267.200 292.620,267.200 292.400 C 267.200 292.180,267.909 292.000,268.776 292.000 C 269.643 292.000,270.464 291.820,270.600 291.600 C 270.736 291.380,271.456 291.200,272.200 291.200 C 272.944 291.200,273.664 291.020,273.800 290.800 C 273.936 290.580,274.566 290.400,275.200 290.400 C 275.834 290.400,276.464 290.220,276.600 290.000 C 276.736 289.780,277.467 289.600,278.224 289.600 C 278.981 289.600,279.600 289.420,279.600 289.200 C 279.600 288.980,280.129 288.800,280.776 288.800 C 281.423 288.800,282.064 288.620,282.200 288.400 C 282.336 288.180,282.966 288.000,283.600 288.000 C 284.234 288.000,284.864 287.820,285.000 287.600 C 285.136 287.380,285.676 287.200,286.200 287.200 C 286.724 287.200,287.264 287.020,287.400 286.800 C 287.536 286.580,288.076 286.400,288.600 286.400 C 289.124 286.400,289.664 286.220,289.800 286.000 C 289.936 285.780,290.476 285.600,291.000 285.600 C 291.524 285.600,292.064 285.420,292.200 285.200 C 292.336 284.980,292.799 284.800,293.229 284.800 C 293.659 284.800,294.323 284.641,294.705 284.447 C 295.432 284.077,297.235 283.309,298.600 282.787 C 299.040 282.619,300.030 282.212,300.800 281.882 C 301.570 281.552,303.640 280.692,305.400 279.970 C 307.160 279.248,309.190 278.329,309.912 277.929 C 310.634 277.528,311.489 277.200,311.812 277.200 C 312.135 277.200,312.400 277.020,312.400 276.800 C 312.400 276.580,312.760 276.400,313.200 276.400 C 313.640 276.400,314.000 276.254,314.000 276.075 C 314.000 275.896,314.630 275.502,315.400 275.200 C 316.170 274.898,316.800 274.504,316.800 274.325 C 316.800 274.146,317.160 274.000,317.600 274.000 C 318.040 274.000,318.400 273.820,318.400 273.600 C 318.400 273.380,318.636 273.200,318.925 273.200 C 319.213 273.200,319.836 272.840,320.308 272.400 C 320.780 271.960,321.362 271.600,321.600 271.600 C 321.838 271.600,322.420 271.240,322.892 270.800 C 323.364 270.360,323.987 270.000,324.275 270.000 C 324.564 270.000,324.800 269.859,324.800 269.686 C 324.800 269.514,325.333 269.057,325.985 268.672 C 326.637 268.287,327.402 267.747,327.685 267.473 C 327.968 267.198,328.830 266.538,329.600 266.006 C 330.370 265.474,331.090 264.940,331.200 264.819 C 331.310 264.699,332.660 263.523,334.200 262.208 C 337.289 259.568,337.991 258.859,339.545 256.809 C 340.125 256.044,341.095 254.892,341.700 254.250 C 342.305 253.607,342.800 252.853,342.800 252.574 C 342.800 252.295,342.935 252.007,343.100 251.933 C 343.582 251.719,344.983 249.532,345.748 247.800 C 347.016 244.926,347.141 244.618,347.674 243.037 C 347.963 242.178,348.493 241.398,348.851 241.304 C 350.418 240.891,351.288 230.026,349.800 229.455 C 349.470 229.329,349.200 228.949,349.200 228.613 C 349.200 227.773,348.427 227.838,348.150 228.700 C 347.438 230.921,343.391 237.795,341.824 239.447 C 341.591 239.692,340.336 241.092,339.035 242.557 C 334.361 247.823,323.123 256.147,316.700 259.099 C 315.875 259.478,315.200 259.926,315.200 260.094 C 315.200 260.262,314.840 260.400,314.400 260.400 C 313.960 260.400,313.600 260.580,313.600 260.800 C 313.600 261.020,313.240 261.200,312.800 261.200 C 312.360 261.200,312.000 261.380,312.000 261.600 C 312.000 261.820,311.640 262.000,311.200 262.000 C 310.760 262.000,310.400 262.180,310.400 262.400 C 310.400 262.620,310.040 262.800,309.600 262.800 C 309.160 262.800,308.800 262.980,308.800 263.200 C 308.800 263.420,308.558 263.600,308.261 263.600 C 307.965 263.600,307.200 263.850,306.561 264.156 C 304.970 264.919,301.638 266.342,299.200 267.300 C 298.650 267.516,297.930 267.824,297.600 267.983 C 296.880 268.331,283.274 272.673,281.000 273.281 C 278.172 274.036,276.622 274.494,275.681 274.851 C 275.176 275.043,274.241 275.200,273.605 275.200 C 272.968 275.200,272.336 275.380,272.200 275.600 C 272.064 275.820,271.344 276.000,270.600 276.000 C 269.856 276.000,269.136 276.180,269.000 276.400 C 268.864 276.620,268.054 276.800,267.200 276.800 C 266.346 276.800,265.536 276.980,265.400 277.200 C 265.264 277.420,264.364 277.600,263.400 277.600 C 262.436 277.600,261.536 277.780,261.400 278.000 C 261.264 278.220,260.389 278.400,259.456 278.400 C 258.523 278.400,257.589 278.563,257.380 278.761 C 257.171 278.960,256.190 279.225,255.200 279.350 C 254.210 279.475,252.140 279.767,250.600 279.999 C 235.612 282.257,226.001 283.118,207.640 283.848 C 201.153 284.106,200.644 284.075,200.140 283.386 C 199.701 282.785,199.600 278.129,199.600 258.385 L 199.600 234.123 192.300 233.846 C 179.156 233.347,169.840 232.674,161.000 231.585 C 159.020 231.341,156.410 231.057,155.200 230.953 C 153.990 230.849,152.640 230.601,152.200 230.401 C 151.760 230.202,150.500 229.950,149.400 229.841 C 148.300 229.732,146.320 229.445,145.000 229.203 C 143.680 228.961,141.790 228.663,140.800 228.542 C 139.810 228.421,138.829 228.160,138.620 227.961 C 138.411 227.763,137.477 227.600,136.544 227.600 C 135.611 227.600,134.736 227.420,134.600 227.200 C 134.464 226.980,133.744 226.800,133.000 226.800 C 132.256 226.800,131.536 226.620,131.400 226.400 C 131.264 226.180,130.454 226.000,129.600 226.000 C 128.746 226.000,127.936 225.820,127.800 225.600 C 127.664 225.380,127.171 225.200,126.705 225.200 C 126.238 225.200,125.304 225.032,124.628 224.827 C 123.953 224.622,122.590 224.244,121.600 223.988 C 120.610 223.732,119.487 223.360,119.105 223.161 C 118.723 222.962,118.093 222.797,117.705 222.792 C 116.222 222.776,101.748 217.833,97.600 215.926 C 96.610 215.471,95.440 214.961,95.000 214.792 C 93.412 214.185,83.354 209.144,81.400 207.976 C 80.300 207.319,79.130 206.662,78.800 206.516 C 74.093 204.435,60.930 193.188,57.596 188.400 C 57.060 187.630,56.312 186.662,55.934 186.249 C 54.523 184.710,50.815 176.508,50.334 173.864 C 50.260 173.459,50.065 173.264,49.900 173.431 M64.059 177.900 C 64.316 178.285,65.262 179.221,66.163 179.979 C 67.659 181.240,67.629 181.180,65.815 179.279 C 63.722 177.086,63.294 176.750,64.059 177.900 M70.144 183.109 C 70.460 183.621,72.800 185.353,72.800 185.075 C 72.800 184.976,72.139 184.391,71.332 183.775 C 70.524 183.159,69.989 182.859,70.144 183.109 M76.374 187.524 C 76.909 187.959,77.899 188.619,78.574 188.991 L 79.800 189.667 78.826 188.876 C 78.291 188.441,77.301 187.781,76.626 187.409 L 75.400 186.733 76.374 187.524 M80.000 189.790 C 80.000 189.894,80.585 190.265,81.300 190.614 L 82.600 191.248 81.600 190.433 C 80.637 189.648,80.000 189.392,80.000 189.790 M82.800 191.390 C 82.800 191.494,83.385 191.865,84.100 192.214 L 85.400 192.848 84.400 192.033 C 83.437 191.248,82.800 190.992,82.800 191.390 M106.000 201.714 C 106.297 202.030,110.921 203.612,111.081 203.453 C 111.156 203.377,110.449 203.034,109.509 202.690 C 107.268 201.870,105.750 201.448,106.000 201.714 M113.600 204.341 C 113.930 204.534,114.740 204.809,115.400 204.952 C 116.168 205.118,116.384 205.084,116.000 204.859 C 115.670 204.666,114.860 204.391,114.200 204.248 C 113.432 204.082,113.216 204.116,113.600 204.341 M118.080 205.764 C 119.774 206.368,122.683 206.952,121.400 206.430 C 119.894 205.817,117.743 205.200,117.172 205.218 C 116.857 205.227,117.266 205.473,118.080 205.764 M123.818 207.360 C 125.814 207.986,128.545 208.496,127.400 208.030 C 125.723 207.347,123.713 206.801,122.972 206.827 C 122.547 206.841,122.928 207.082,123.818 207.360 M129.600 208.800 C 131.142 209.294,131.964 209.294,131.200 208.800 C 130.870 208.587,130.150 208.427,129.600 208.446 L 128.600 208.480 129.600 208.800 M132.433 209.344 C 132.525 209.423,133.140 209.608,133.800 209.756 C 134.676 209.952,134.838 209.915,134.400 209.618 C 133.860 209.253,132.032 208.998,132.433 209.344 M136.033 210.143 C 136.125 210.221,136.830 210.401,137.600 210.542 C 138.585 210.723,138.822 210.682,138.400 210.406 C 137.858 210.050,135.637 209.803,136.033 210.143 M140.800 211.200 C 142.342 211.694,143.164 211.694,142.400 211.200 C 142.070 210.987,141.350 210.827,140.800 210.846 L 139.800 210.880 140.800 211.200 M145.200 212.000 C 145.750 212.176,146.560 212.326,147.000 212.332 L 147.800 212.344 147.000 212.000 C 146.560 211.811,145.750 211.662,145.200 211.668 L 144.200 211.680 145.200 212.000 M150.000 212.800 C 150.550 212.976,151.360 213.126,151.800 213.132 L 152.600 213.144 151.800 212.800 C 151.360 212.611,150.550 212.462,150.000 212.468 L 149.000 212.480 150.000 212.800 M155.400 213.600 C 156.060 213.768,156.960 213.914,157.400 213.925 L 158.200 213.944 157.400 213.600 C 156.960 213.411,156.060 213.265,155.400 213.275 L 154.200 213.295 155.400 213.600 M161.400 214.400 C 162.060 214.568,163.230 214.706,164.000 214.707 L 165.400 214.708 163.800 214.377 C 161.645 213.931,159.634 213.951,161.400 214.400 M169.000 215.223 C 169.880 215.405,171.320 215.540,172.200 215.524 C 173.767 215.494,173.759 215.487,171.800 215.182 C 168.956 214.739,166.812 214.770,169.000 215.223 M178.400 215.999 C 180.644 216.327,187.069 216.521,186.767 216.251 C 186.675 216.169,184.260 216.006,181.400 215.889 C 178.037 215.752,176.977 215.790,178.400 215.999 M195.111 216.693 C 196.051 216.778,197.491 216.777,198.311 216.691 C 199.130 216.605,198.360 216.536,196.600 216.537 C 194.840 216.539,194.170 216.609,195.111 216.693 M50.400 241.524 C 50.400 241.739,50.685 242.024,51.033 242.157 C 51.423 242.307,51.606 242.218,51.508 241.925 C 51.309 241.327,50.400 240.998,50.400 241.524 M58.396 255.194 C 59.090 256.071,59.867 256.918,60.123 257.076 C 60.378 257.234,59.893 256.516,59.045 255.481 C 58.197 254.447,57.420 253.600,57.318 253.600 C 57.216 253.600,57.701 254.318,58.396 255.194 M49.888 256.933 C 49.452 258.041,49.533 310.311,49.971 310.582 C 50.175 310.708,50.457 310.449,50.598 310.006 C 50.913 309.015,51.598 308.943,51.604 309.900 C 51.611 311.051,54.838 316.968,57.292 320.330 C 64.647 330.408,81.791 342.153,98.800 348.767 C 100.670 349.494,102.779 350.345,103.486 350.657 C 104.194 350.969,105.814 351.560,107.086 351.969 C 108.359 352.379,110.120 352.981,111.000 353.307 C 111.880 353.633,113.950 354.304,115.600 354.798 C 117.250 355.292,119.050 355.834,119.600 356.002 C 120.150 356.170,121.410 356.520,122.400 356.781 C 123.390 357.041,124.740 357.412,125.400 357.604 C 129.562 358.817,143.701 361.748,150.400 362.785 C 152.050 363.041,154.390 363.410,155.600 363.606 C 159.186 364.186,167.888 365.114,178.023 365.997 C 180.566 366.219,184.363 366.400,186.461 366.400 C 188.558 366.400,192.463 366.518,195.137 366.661 L 200.000 366.923 200.046 375.561 C 200.072 380.313,200.175 383.885,200.276 383.500 C 200.434 382.894,200.978 382.800,204.329 382.803 C 208.837 382.808,212.460 383.179,212.193 383.611 C 212.091 383.777,213.344 383.933,214.979 383.957 C 216.614 383.982,218.063 383.821,218.199 383.601 C 218.336 383.380,219.167 383.200,220.047 383.200 C 221.012 383.200,221.549 383.041,221.400 382.800 C 221.264 382.580,221.343 382.400,221.576 382.400 C 221.809 382.400,222.000 382.538,222.000 382.706 C 222.000 383.187,227.088 383.288,227.955 382.824 C 228.528 382.518,228.789 382.539,228.936 382.903 C 229.095 383.297,229.143 383.296,229.168 382.900 C 229.191 382.542,230.164 382.400,232.600 382.400 C 234.600 382.400,236.000 382.235,236.000 382.000 C 236.000 381.772,237.192 381.600,238.776 381.600 C 240.303 381.600,241.669 381.411,241.812 381.181 C 241.991 380.890,242.234 380.896,242.600 381.200 C 242.966 381.504,243.209 381.510,243.388 381.219 C 243.531 380.989,244.717 380.800,246.024 380.800 C 247.341 380.800,248.400 380.622,248.400 380.400 C 248.400 380.180,249.174 380.000,250.120 380.000 C 251.066 380.000,252.056 379.784,252.320 379.520 C 252.693 379.147,252.800 379.147,252.800 379.520 C 252.800 379.784,252.991 380.000,253.224 380.000 C 253.457 380.000,253.536 379.820,253.400 379.600 C 253.247 379.352,253.996 379.200,255.376 379.200 C 256.599 379.200,257.600 379.054,257.600 378.875 C 257.600 378.696,258.455 378.506,259.500 378.453 C 260.545 378.400,261.460 378.187,261.533 377.979 C 261.607 377.770,262.642 377.600,263.833 377.600 C 265.025 377.600,266.000 377.420,266.000 377.200 C 266.000 376.980,266.482 376.800,267.072 376.800 C 268.163 376.800,270.440 376.185,271.695 375.551 C 272.077 375.358,272.992 375.200,273.728 375.200 C 274.464 375.200,275.202 375.065,275.367 374.900 C 275.531 374.735,276.056 374.568,276.533 374.529 C 277.853 374.421,281.374 373.532,281.600 373.250 C 281.710 373.112,282.070 372.967,282.400 372.926 C 282.730 372.886,283.540 372.730,284.200 372.580 C 284.860 372.430,285.625 372.298,285.900 372.287 C 286.175 372.276,286.400 372.156,286.400 372.021 C 286.400 371.885,287.255 371.543,288.300 371.261 C 289.345 370.978,290.513 370.579,290.895 370.373 C 291.277 370.168,291.952 370.000,292.395 370.000 C 292.838 370.000,293.200 369.820,293.200 369.600 C 293.200 369.380,293.729 369.200,294.376 369.200 C 295.023 369.200,295.664 369.020,295.800 368.800 C 295.936 368.580,296.487 368.400,297.024 368.400 C 297.561 368.400,298.000 368.220,298.000 368.000 C 298.000 367.780,298.360 367.600,298.800 367.600 C 299.240 367.600,299.600 367.420,299.600 367.200 C 299.600 366.980,299.945 366.800,300.367 366.800 C 300.788 366.800,301.224 366.575,301.335 366.300 C 301.494 365.906,301.544 365.905,301.568 366.296 C 301.591 366.656,301.792 366.628,302.300 366.193 C 302.685 365.863,303.090 365.625,303.200 365.664 C 303.310 365.703,303.850 365.489,304.400 365.187 C 304.950 364.886,305.760 364.580,306.200 364.508 C 306.640 364.436,307.060 364.202,307.133 363.988 C 307.207 363.775,307.612 363.600,308.033 363.600 C 308.455 363.600,308.800 363.420,308.800 363.200 C 308.800 362.980,309.053 362.800,309.362 362.800 C 310.028 362.800,313.341 361.132,313.533 360.700 C 313.607 360.535,314.012 360.400,314.433 360.400 C 314.855 360.400,315.200 360.220,315.200 360.000 C 315.200 359.780,315.483 359.600,315.829 359.600 C 316.174 359.600,316.727 359.330,317.057 359.000 C 317.387 358.670,318.004 358.400,318.429 358.400 C 318.853 358.400,319.200 358.220,319.200 358.000 C 319.200 357.780,319.470 357.600,319.800 357.600 C 320.130 357.600,320.400 357.390,320.400 357.133 C 320.400 356.877,320.509 356.776,320.643 356.909 C 320.776 357.043,321.253 356.809,321.703 356.390 C 322.153 355.971,322.647 355.705,322.800 355.800 C 322.953 355.895,323.459 355.619,323.923 355.186 C 324.387 354.754,324.965 354.400,325.207 354.400 C 325.449 354.400,325.536 354.220,325.400 354.000 C 325.264 353.780,325.399 353.600,325.701 353.600 C 326.002 353.600,326.636 353.240,327.108 352.800 C 327.580 352.360,328.255 352.000,328.607 352.000 C 328.959 352.000,329.136 351.820,329.000 351.600 C 328.864 351.380,328.961 351.200,329.216 351.200 C 329.471 351.200,330.183 350.660,330.800 350.000 C 331.417 349.340,332.130 348.800,332.386 348.800 C 332.642 348.800,333.729 347.900,334.800 346.800 C 335.871 345.700,336.970 344.800,337.241 344.800 C 337.512 344.800,337.643 344.709,337.532 344.599 C 337.422 344.488,338.480 343.237,339.885 341.818 C 341.290 340.400,342.429 339.139,342.417 339.018 C 342.378 338.635,345.373 334.216,345.899 333.880 C 346.174 333.704,346.400 333.109,346.400 332.557 C 346.400 331.989,346.574 331.660,346.800 331.800 C 347.020 331.936,347.200 331.666,347.200 331.200 C 347.200 330.734,347.335 330.436,347.500 330.537 C 347.665 330.639,347.841 330.156,347.892 329.464 C 347.942 328.772,348.167 328.144,348.392 328.069 C 348.616 327.995,348.800 327.498,348.800 326.967 C 348.800 326.435,348.980 326.000,349.200 326.000 C 349.420 326.000,349.600 325.269,349.600 324.376 C 349.600 323.396,349.758 322.851,350.000 323.000 C 350.259 323.160,350.400 321.411,350.400 318.043 C 350.400 314.024,350.274 312.767,349.845 312.520 C 349.539 312.344,349.215 311.840,349.124 311.400 C 349.003 310.818,348.588 311.365,347.602 313.400 C 346.856 314.940,346.146 316.290,346.023 316.400 C 345.899 316.510,345.544 317.095,345.232 317.700 C 344.920 318.305,344.515 318.800,344.332 318.800 C 344.150 318.800,344.000 319.029,344.000 319.308 C 344.000 320.951,333.229 331.440,327.400 335.474 C 325.266 336.951,317.857 341.376,315.800 342.402 C 314.700 342.951,313.740 343.535,313.667 343.700 C 313.593 343.865,313.188 344.000,312.767 344.000 C 312.345 344.000,312.000 344.180,312.000 344.400 C 312.000 344.620,311.640 344.800,311.200 344.800 C 310.760 344.800,310.400 344.980,310.400 345.200 C 310.400 345.420,310.155 345.600,309.856 345.600 C 309.557 345.600,308.252 346.118,306.956 346.750 C 302.359 348.995,299.355 350.226,292.200 352.799 C 290.167 353.529,285.265 355.060,282.000 355.984 C 281.010 356.264,279.750 356.631,279.200 356.800 C 278.650 356.969,277.390 357.320,276.400 357.581 C 275.410 357.841,274.047 358.222,273.372 358.427 C 272.696 358.632,271.762 358.800,271.295 358.800 C 270.829 358.800,270.336 358.980,270.200 359.200 C 270.064 359.420,269.254 359.600,268.400 359.600 C 267.546 359.600,266.736 359.780,266.600 360.000 C 266.464 360.220,265.679 360.400,264.856 360.400 C 264.033 360.400,263.189 360.562,262.980 360.759 C 262.771 360.956,261.880 361.217,261.000 361.339 C 260.120 361.460,258.410 361.757,257.200 361.998 C 253.628 362.710,246.981 363.788,242.400 364.397 C 225.749 366.613,201.089 367.884,200.133 366.575 C 199.703 365.988,199.600 361.145,199.600 341.524 L 199.600 317.200 196.300 317.169 C 191.027 317.118,175.781 316.413,171.200 316.008 C 162.144 315.206,154.872 314.262,146.800 312.840 C 145.590 312.626,143.700 312.337,142.600 312.197 C 141.500 312.056,140.240 311.786,139.800 311.596 C 139.049 311.271,138.122 311.097,134.200 310.544 C 133.320 310.420,132.429 310.156,132.220 309.959 C 132.011 309.762,131.257 309.600,130.544 309.600 C 129.831 309.600,129.136 309.420,129.000 309.200 C 128.864 308.980,128.144 308.800,127.400 308.800 C 126.656 308.800,125.936 308.620,125.800 308.400 C 125.664 308.180,124.944 308.000,124.200 308.000 C 123.456 308.000,122.736 307.820,122.600 307.600 C 122.464 307.380,121.834 307.200,121.200 307.200 C 120.566 307.200,119.936 307.020,119.800 306.800 C 119.664 306.580,119.152 306.400,118.661 306.400 C 117.904 306.400,105.815 302.626,103.400 301.635 C 102.960 301.455,102.105 301.103,101.500 300.854 C 100.895 300.604,99.995 300.238,99.500 300.040 C 99.005 299.842,97.747 299.302,96.704 298.840 C 95.662 298.378,94.537 298.000,94.204 298.000 C 93.872 298.000,93.600 297.820,93.600 297.600 C 93.600 297.380,93.240 297.200,92.800 297.200 C 92.360 297.200,92.000 297.020,92.000 296.800 C 92.000 296.580,91.775 296.401,91.500 296.403 C 91.019 296.406,84.409 293.239,84.000 292.809 C 83.890 292.693,83.260 292.329,82.600 292.000 C 81.940 291.671,81.310 291.311,81.200 291.201 C 81.090 291.090,80.190 290.559,79.200 290.020 C 78.210 289.481,77.220 288.894,77.000 288.715 C 76.780 288.537,75.374 287.585,73.876 286.600 C 68.224 282.885,61.509 276.908,58.597 273.000 C 57.941 272.120,57.300 271.310,57.172 271.200 C 55.216 269.516,50.980 260.740,50.318 257.000 C 50.185 256.251,50.158 256.246,49.888 256.933 M62.600 260.000 C 64.799 262.222,65.915 263.144,64.843 261.852 C 63.729 260.509,60.762 257.600,60.507 257.600 C 60.352 257.600,61.294 258.680,62.600 260.000 M65.600 262.603 C 65.600 262.837,66.976 264.075,69.075 265.729 C 70.825 267.108,69.997 266.150,67.800 264.253 C 66.590 263.209,65.600 262.466,65.600 262.603 M70.625 266.841 C 70.755 267.051,72.693 268.446,74.931 269.940 C 79.355 272.893,80.439 273.556,79.800 272.918 C 79.099 272.218,70.379 266.442,70.625 266.841 M80.800 273.620 C 82.187 274.561,82.978 274.835,82.000 274.036 C 81.450 273.586,80.820 273.217,80.600 273.215 C 80.380 273.213,80.470 273.396,80.800 273.620 M83.200 274.995 C 83.200 275.102,84.505 275.841,86.100 276.637 C 89.459 278.313,89.301 277.901,85.875 276.054 C 83.500 274.773,83.200 274.654,83.200 274.995 M106.800 285.346 C 106.800 285.533,110.589 286.808,111.075 286.784 C 111.546 286.762,109.192 285.778,107.900 285.457 C 107.295 285.307,106.800 285.257,106.800 285.346 M111.600 286.936 C 111.600 287.187,116.891 288.842,117.082 288.651 C 117.212 288.521,115.505 287.912,112.500 287.015 C 112.005 286.867,111.600 286.831,111.600 286.936 M117.633 288.944 C 117.725 289.023,118.340 289.208,119.000 289.356 C 119.876 289.552,120.038 289.515,119.600 289.218 C 119.060 288.853,117.232 288.598,117.633 288.944 M120.433 289.744 C 120.525 289.823,121.140 290.008,121.800 290.156 C 122.676 290.352,122.838 290.315,122.400 290.018 C 121.860 289.653,120.032 289.398,120.433 289.744 M123.233 290.543 C 123.325 290.621,124.030 290.801,124.800 290.942 C 125.785 291.123,126.022 291.082,125.600 290.806 C 125.058 290.450,122.837 290.203,123.233 290.543 M127.200 291.600 C 128.742 292.094,129.564 292.094,128.800 291.600 C 128.470 291.387,127.750 291.227,127.200 291.246 L 126.200 291.280 127.200 291.600 M130.033 292.144 C 130.505 292.550,132.443 292.793,132.210 292.416 C 132.068 292.187,131.483 292.000,130.910 292.000 C 130.336 292.000,129.942 292.065,130.033 292.144 M134.000 293.200 C 135.542 293.694,136.364 293.694,135.600 293.200 C 135.270 292.987,134.550 292.827,134.000 292.846 L 133.000 292.880 134.000 293.200 M138.200 294.000 C 139.396 294.514,140.395 294.514,139.600 294.000 C 139.270 293.787,138.640 293.622,138.200 293.634 L 137.400 293.656 138.200 294.000 M141.233 294.547 C 141.325 294.628,142.120 294.804,143.000 294.938 C 144.115 295.107,144.358 295.071,143.800 294.819 C 143.032 294.471,140.890 294.244,141.233 294.547 M145.633 295.347 C 145.725 295.428,146.520 295.614,147.400 295.762 C 148.546 295.954,148.830 295.914,148.400 295.621 C 147.860 295.253,145.232 294.993,145.633 295.347 M151.800 296.400 C 152.460 296.568,153.360 296.714,153.800 296.725 L 154.600 296.744 153.800 296.400 C 153.360 296.211,152.460 296.065,151.800 296.075 L 150.600 296.095 151.800 296.400 M156.033 296.949 C 156.125 297.031,157.100 297.207,158.200 297.341 C 159.546 297.505,159.939 297.465,159.400 297.220 C 158.639 296.874,155.683 296.636,156.033 296.949 M163.800 298.023 C 164.680 298.205,166.030 298.342,166.800 298.327 C 168.105 298.302,168.078 298.278,166.400 297.980 C 163.850 297.526,161.579 297.564,163.800 298.023 M171.800 298.823 C 172.680 299.005,174.210 299.140,175.200 299.124 L 177.000 299.093 175.000 298.782 C 173.900 298.610,172.370 298.475,171.600 298.481 L 170.200 298.492 171.800 298.823 M182.800 299.626 C 185.022 299.924,198.275 300.124,197.967 299.855 C 197.875 299.775,193.930 299.625,189.200 299.520 C 184.470 299.416,181.590 299.464,182.800 299.626 " stroke="none" fill="#94a4a4" fill-rule="evenodd"></path><path id="path1" d="M182.494 16.410 C 181.995 16.613,179.161 16.799,176.196 16.825 C 173.230 16.850,170.702 17.035,170.578 17.235 C 170.454 17.436,168.822 17.600,166.950 17.600 C 165.079 17.600,163.231 17.769,162.844 17.977 C 162.457 18.184,160.939 18.392,159.470 18.440 C 158.002 18.487,156.800 18.678,156.800 18.863 C 156.800 19.048,155.551 19.200,154.024 19.200 C 152.497 19.200,151.136 19.380,151.000 19.600 C 150.864 19.820,149.809 20.000,148.656 20.000 C 147.503 20.000,146.389 20.163,146.180 20.361 C 145.828 20.696,145.036 20.833,139.900 21.449 C 138.855 21.575,138.000 21.840,138.000 22.039 C 138.000 22.237,137.201 22.400,136.224 22.400 C 135.247 22.400,134.336 22.580,134.200 22.800 C 134.064 23.020,133.254 23.200,132.400 23.200 C 131.546 23.200,130.736 23.380,130.600 23.600 C 130.464 23.820,129.643 24.000,128.776 24.000 C 127.909 24.000,127.200 24.180,127.200 24.400 C 127.200 24.620,126.570 24.800,125.800 24.800 C 125.030 24.800,124.400 24.980,124.400 25.200 C 124.400 25.420,123.691 25.600,122.824 25.600 C 121.957 25.600,121.136 25.780,121.000 26.000 C 120.864 26.220,120.223 26.400,119.576 26.400 C 118.929 26.400,118.400 26.580,118.400 26.800 C 118.400 27.020,117.905 27.195,117.300 27.189 C 116.071 27.176,102.276 31.621,102.067 32.097 C 101.993 32.264,101.498 32.400,100.967 32.400 C 100.435 32.400,100.000 32.580,100.000 32.800 C 100.000 33.020,99.651 33.200,99.224 33.200 C 98.797 33.200,98.336 33.380,98.200 33.600 C 98.064 33.820,97.603 34.000,97.176 34.000 C 96.749 34.000,96.400 34.180,96.400 34.400 C 96.400 34.620,95.950 34.800,95.400 34.800 C 94.850 34.800,94.400 34.980,94.400 35.200 C 94.400 35.420,94.040 35.600,93.600 35.600 C 93.160 35.600,92.800 35.780,92.800 36.000 C 92.800 36.220,92.564 36.400,92.275 36.400 C 91.702 36.400,88.791 37.678,87.200 38.627 C 86.650 38.956,85.525 39.531,84.700 39.906 C 83.875 40.282,83.200 40.726,83.200 40.894 C 83.200 41.062,82.840 41.200,82.400 41.200 C 81.960 41.200,81.600 41.380,81.600 41.600 C 81.600 41.820,81.330 42.000,81.000 42.000 C 80.670 42.000,80.400 42.180,80.400 42.400 C 80.400 42.620,80.040 42.800,79.600 42.800 C 79.160 42.800,78.800 42.939,78.800 43.109 C 78.800 43.279,78.125 43.772,77.300 44.205 C 76.475 44.638,75.689 45.145,75.554 45.332 C 75.309 45.671,74.917 45.919,72.352 47.359 C 71.609 47.777,70.709 48.452,70.353 48.859 C 69.997 49.267,69.531 49.600,69.317 49.600 C 68.722 49.600,60.400 57.402,60.400 57.960 C 60.400 58.123,59.590 59.102,58.600 60.135 C 57.610 61.169,56.800 62.191,56.800 62.407 C 56.800 62.623,56.642 62.800,56.449 62.800 C 56.255 62.800,55.873 63.340,55.600 64.000 C 55.327 64.660,54.967 65.200,54.800 65.200 C 54.633 65.200,54.260 65.785,53.971 66.500 C 53.682 67.215,53.345 67.890,53.223 68.000 C 52.690 68.479,52.000 70.055,52.000 70.795 C 52.000 71.238,51.864 71.600,51.697 71.600 C 51.331 71.600,50.400 74.467,50.400 75.594 C 50.400 76.037,50.237 76.400,50.038 76.400 C 49.382 76.400,49.483 87.469,50.141 87.722 C 50.454 87.842,50.806 88.629,50.923 89.470 C 52.911 103.771,72.126 121.782,95.000 130.784 C 95.440 130.957,96.610 131.465,97.600 131.912 C 109.908 137.471,132.956 143.605,152.000 146.389 C 153.650 146.631,156.080 146.990,157.400 147.188 C 165.596 148.418,187.039 150.000,195.505 150.000 L 199.994 150.000 200.097 174.900 L 200.200 199.800 203.200 199.940 C 206.497 200.093,221.487 199.383,227.800 198.775 C 237.065 197.882,240.331 197.535,242.600 197.201 C 243.920 197.007,246.440 196.642,248.200 196.390 C 257.254 195.096,272.024 191.969,280.203 189.614 C 286.312 187.855,296.922 184.351,297.380 183.940 C 297.589 183.753,297.996 183.600,298.284 183.600 C 298.573 183.600,299.572 183.257,300.504 182.838 C 301.437 182.420,303.010 181.745,304.000 181.338 C 319.932 174.802,335.056 164.137,342.487 154.200 C 344.813 151.090,348.400 144.317,348.400 143.035 C 348.400 142.130,349.098 142.248,349.402 143.206 C 349.543 143.649,349.825 143.908,350.029 143.782 C 350.554 143.458,350.526 76.925,350.000 76.600 C 349.780 76.464,349.600 76.001,349.600 75.570 C 349.600 74.462,348.665 71.600,348.303 71.600 C 348.136 71.600,347.994 71.195,347.987 70.700 C 347.980 70.205,347.716 69.458,347.400 69.041 C 347.084 68.624,346.920 68.129,347.036 67.941 C 347.152 67.753,347.057 67.600,346.824 67.600 C 346.591 67.600,346.400 67.330,346.400 67.000 C 346.400 66.670,346.220 66.400,346.000 66.400 C 345.780 66.400,345.600 66.130,345.600 65.800 C 345.600 65.470,345.420 65.200,345.200 65.200 C 344.980 65.200,344.800 64.930,344.800 64.600 C 344.800 64.270,344.620 64.000,344.400 64.000 C 344.180 64.000,344.000 63.730,344.000 63.400 C 344.000 63.070,343.820 62.800,343.600 62.800 C 343.380 62.800,343.200 62.621,343.200 62.403 C 343.200 61.999,342.119 60.620,340.500 58.959 C 340.005 58.452,339.600 57.960,339.600 57.867 C 339.600 57.584,335.712 53.600,335.436 53.600 C 335.294 53.600,334.369 52.790,333.379 51.800 C 332.389 50.810,331.426 50.000,331.240 50.000 C 331.053 50.000,330.213 49.370,329.372 48.600 C 328.531 47.830,327.624 47.200,327.355 47.200 C 327.086 47.200,326.807 47.061,326.733 46.892 C 326.537 46.439,322.138 43.600,321.632 43.600 C 321.394 43.600,321.200 43.420,321.200 43.200 C 321.200 42.980,320.930 42.800,320.600 42.800 C 320.270 42.800,320.000 42.620,320.000 42.400 C 320.000 42.180,319.640 42.000,319.200 42.000 C 318.760 42.000,318.400 41.820,318.400 41.600 C 318.400 41.380,318.040 41.200,317.600 41.200 C 317.160 41.200,316.800 41.020,316.800 40.800 C 316.800 40.580,316.530 40.400,316.200 40.400 C 315.870 40.400,315.600 40.220,315.600 40.000 C 315.600 39.780,315.285 39.596,314.900 39.591 C 314.515 39.586,313.750 39.230,313.200 38.800 C 312.650 38.370,311.885 38.014,311.500 38.009 C 311.115 38.004,310.800 37.820,310.800 37.600 C 310.800 37.380,310.548 37.200,310.241 37.200 C 309.933 37.200,308.655 36.660,307.400 36.000 C 306.145 35.340,304.867 34.800,304.559 34.800 C 304.252 34.800,304.000 34.620,304.000 34.400 C 304.000 34.180,303.674 34.000,303.275 34.000 C 302.876 34.000,301.805 33.640,300.894 33.200 C 299.984 32.760,298.960 32.400,298.619 32.400 C 298.279 32.400,298.000 32.259,298.000 32.087 C 298.000 31.915,297.145 31.529,296.100 31.229 C 295.055 30.929,294.020 30.580,293.800 30.453 C 293.580 30.326,293.138 30.183,292.817 30.134 C 292.497 30.086,291.867 29.876,291.417 29.668 C 289.635 28.844,283.877 27.200,282.772 27.200 C 282.128 27.200,281.600 27.040,281.600 26.844 C 281.600 26.648,280.925 26.373,280.100 26.232 C 276.449 25.610,276.000 25.493,276.000 25.156 C 276.000 24.960,275.280 24.800,274.400 24.800 C 273.520 24.800,272.800 24.620,272.800 24.400 C 272.800 24.180,272.091 24.000,271.224 24.000 C 270.357 24.000,269.536 23.820,269.400 23.600 C 269.264 23.380,268.443 23.200,267.576 23.200 C 266.709 23.200,266.000 23.037,266.000 22.839 C 266.000 22.640,265.145 22.375,264.100 22.249 C 259.375 21.683,258.400 21.496,258.400 21.160 C 258.400 20.962,257.421 20.800,256.224 20.800 C 255.027 20.800,253.936 20.620,253.800 20.400 C 253.664 20.180,252.519 20.000,251.256 20.000 C 249.993 20.000,248.789 19.836,248.580 19.635 C 248.371 19.435,247.210 19.168,246.000 19.043 C 244.790 18.919,242.270 18.630,240.400 18.403 C 238.530 18.175,235.290 17.883,233.200 17.754 C 231.110 17.625,229.306 17.367,229.190 17.182 C 228.728 16.439,184.231 15.704,182.494 16.410 M347.983 160.100 C 344.807 170.006,333.417 182.090,320.131 189.650 C 313.699 193.310,310.576 194.872,303.200 198.121 C 296.610 201.023,282.232 205.751,274.200 207.657 C 273.320 207.866,271.880 208.218,271.000 208.440 C 265.680 209.782,257.146 211.484,251.000 212.429 C 244.332 213.454,243.244 213.612,240.400 213.962 C 228.345 215.447,221.296 215.976,209.800 216.259 C 204.520 216.388,199.990 216.663,199.733 216.869 C 198.069 218.203,164.391 215.598,148.800 212.929 C 146.930 212.609,144.410 212.181,143.200 211.978 C 141.990 211.776,140.190 211.426,139.200 211.202 C 138.210 210.977,136.770 210.696,136.000 210.576 C 134.624 210.362,133.378 210.077,130.200 209.249 C 125.364 207.989,123.267 207.487,122.096 207.309 C 121.379 207.201,120.694 206.951,120.573 206.756 C 120.452 206.560,119.971 206.400,119.505 206.400 C 118.604 206.400,116.261 205.735,115.105 205.151 C 114.723 204.958,114.059 204.800,113.629 204.800 C 113.199 204.800,112.736 204.620,112.600 204.400 C 112.464 204.180,112.027 204.000,111.630 204.000 C 111.232 204.000,110.028 203.662,108.953 203.248 C 107.879 202.835,105.380 201.913,103.400 201.201 C 96.479 198.710,86.348 193.985,80.800 190.660 C 79.810 190.067,78.415 189.282,77.700 188.917 C 76.985 188.551,76.400 188.105,76.400 187.926 C 76.400 187.747,76.175 187.598,75.900 187.595 C 75.625 187.592,74.950 187.234,74.400 186.799 C 73.850 186.365,71.738 184.744,69.707 183.197 C 60.926 176.511,51.600 164.698,51.600 160.262 C 51.600 159.339,50.871 159.071,50.197 159.746 C 49.521 160.422,49.287 171.440,49.958 171.026 C 50.358 170.779,50.800 171.693,50.800 172.767 C 50.800 173.689,52.253 178.088,53.315 180.382 C 58.836 192.305,74.657 205.318,93.600 213.518 C 103.153 217.653,111.831 220.714,122.000 223.535 C 129.223 225.539,144.256 228.695,151.196 229.665 C 166.086 231.746,172.720 232.337,187.800 232.929 L 199.800 233.400 200.000 258.200 L 200.200 283.000 209.800 282.917 C 215.080 282.872,221.650 282.640,224.400 282.402 C 234.080 281.566,242.046 280.696,246.400 280.001 C 247.610 279.807,249.950 279.445,251.600 279.195 C 269.130 276.543,290.897 270.490,304.400 264.512 C 327.458 254.305,342.365 241.908,347.584 228.600 C 348.736 225.662,349.044 225.279,349.387 226.360 C 349.534 226.822,349.822 227.200,350.027 227.200 C 350.506 227.200,350.531 171.728,350.052 171.432 C 349.861 171.314,349.399 172.518,349.026 174.109 C 344.819 192.053,322.428 209.357,289.436 220.161 C 284.209 221.872,283.474 222.095,278.200 223.563 C 271.467 225.438,258.937 228.129,252.000 229.190 C 250.350 229.443,248.010 229.811,246.800 230.009 C 243.623 230.528,238.844 231.107,233.800 231.585 C 231.380 231.815,227.690 232.177,225.600 232.390 C 223.510 232.603,216.895 232.901,210.900 233.052 L 200.000 233.327 200.000 225.297 L 200.000 217.268 202.900 217.049 C 204.495 216.928,209.400 216.732,213.800 216.613 C 223.272 216.357,237.760 215.047,247.013 213.611 C 254.681 212.420,257.538 211.946,259.000 211.621 C 259.880 211.425,261.680 211.057,263.000 210.803 C 264.320 210.548,266.030 210.182,266.800 209.989 C 267.570 209.796,269.820 209.261,271.800 208.800 C 275.520 207.934,277.870 207.332,279.600 206.800 C 280.150 206.631,281.410 206.271,282.400 206.001 C 283.390 205.730,284.560 205.372,285.000 205.205 C 285.440 205.039,287.600 204.329,289.800 203.628 C 298.841 200.748,314.810 193.723,319.800 190.431 C 320.680 189.851,321.850 189.148,322.400 188.871 C 332.330 183.859,345.500 169.577,348.376 160.700 C 348.643 159.875,349.028 159.200,349.231 159.200 C 349.434 159.200,349.600 159.020,349.600 158.800 C 349.600 157.696,348.460 158.613,347.983 160.100 M348.205 243.049 C 347.872 243.846,347.600 244.568,347.600 244.653 C 347.600 245.114,345.701 248.829,344.728 250.272 C 344.107 251.192,343.600 252.137,343.600 252.372 C 343.600 252.607,343.459 252.800,343.286 252.800 C 343.114 252.800,342.680 253.295,342.321 253.900 C 340.581 256.841,333.082 264.210,328.800 267.188 C 328.030 267.723,327.310 268.263,327.200 268.387 C 326.556 269.112,315.863 275.590,315.279 275.609 C 315.125 275.614,314.550 275.970,314.000 276.400 C 313.450 276.830,312.685 277.186,312.300 277.191 C 311.915 277.196,311.600 277.380,311.600 277.600 C 311.600 277.820,311.409 278.000,311.175 278.000 C 310.941 278.000,309.636 278.518,308.275 279.150 C 299.341 283.302,288.605 287.146,277.800 290.061 C 276.920 290.299,275.750 290.637,275.200 290.813 C 274.650 290.989,273.570 291.256,272.800 291.407 C 272.030 291.559,270.680 291.854,269.800 292.063 C 253.998 295.824,237.189 298.183,219.000 299.193 C 208.665 299.767,207.928 299.855,212.820 299.933 C 223.833 300.108,249.967 297.054,263.600 293.999 C 264.590 293.777,266.210 293.425,267.200 293.218 C 269.685 292.697,274.476 291.515,277.000 290.800 C 277.880 290.551,279.230 290.199,280.000 290.019 C 281.466 289.676,285.230 288.529,286.600 288.009 C 287.040 287.842,288.660 287.311,290.200 286.830 C 298.713 284.168,312.265 278.227,318.600 274.379 C 319.700 273.711,320.915 273.062,321.300 272.936 C 321.685 272.810,322.000 272.592,322.000 272.451 C 322.000 272.310,322.495 271.973,323.100 271.702 C 331.642 267.874,345.573 252.550,348.376 243.900 C 348.643 243.075,349.028 242.400,349.231 242.400 C 349.434 242.400,349.600 242.220,349.600 242.000 C 349.600 241.078,348.767 241.705,348.205 243.049 M50.014 243.174 C 49.506 244.123,49.453 254.538,49.958 254.226 C 50.378 253.966,50.800 254.909,50.800 256.106 C 50.800 258.709,54.371 266.394,57.581 270.697 C 65.167 280.869,80.771 291.902,96.200 298.004 C 96.640 298.178,97.853 298.698,98.896 299.160 C 99.938 299.622,100.976 300.000,101.201 300.000 C 101.426 300.000,101.923 300.159,102.305 300.353 C 117.767 308.219,162.440 316.166,193.200 316.523 L 199.800 316.600 199.903 341.500 L 200.006 366.400 207.595 366.400 C 230.236 366.400,261.065 361.796,282.800 355.170 C 285.770 354.264,288.650 353.384,289.200 353.212 C 290.372 352.847,297.834 350.110,299.000 349.618 C 299.440 349.432,300.653 348.902,301.696 348.440 C 302.738 347.978,303.711 347.600,303.857 347.600 C 305.383 347.600,325.916 336.329,327.200 334.787 C 327.310 334.655,328.210 333.996,329.200 333.321 C 336.081 328.634,347.600 315.265,347.600 311.966 C 347.600 310.800,348.914 308.703,349.259 309.319 C 350.305 311.189,350.400 308.952,350.400 282.424 C 350.400 256.756,350.187 251.222,349.379 255.889 C 346.837 270.564,327.627 288.859,306.000 297.201 C 305.230 297.498,303.470 298.249,302.090 298.870 C 300.709 299.492,299.402 300.000,299.185 300.000 C 298.967 300.000,298.477 300.159,298.095 300.353 C 290.945 303.991,266.729 310.296,250.400 312.773 C 248.750 313.023,246.320 313.391,245.000 313.591 C 234.735 315.142,219.421 316.341,208.000 316.487 L 200.200 316.587 200.200 308.382 L 200.200 300.178 191.600 300.081 C 179.192 299.940,165.494 298.874,155.000 297.233 C 153.680 297.026,151.250 296.651,149.600 296.400 C 145.416 295.762,142.505 295.261,140.400 294.816 C 139.410 294.606,137.700 294.248,136.600 294.020 C 135.500 293.792,133.790 293.414,132.800 293.181 C 131.810 292.947,130.280 292.596,129.400 292.400 C 127.155 291.900,124.855 291.326,123.100 290.827 C 120.775 290.165,118.714 289.586,117.400 289.225 C 116.740 289.043,115.390 288.630,114.400 288.305 C 113.410 287.981,111.790 287.477,110.800 287.186 C 109.810 286.894,108.820 286.533,108.600 286.383 C 108.380 286.233,107.685 285.987,107.055 285.836 C 103.126 284.896,86.807 277.631,81.577 274.493 C 77.146 271.835,74.112 269.926,73.004 269.096 C 72.346 268.603,70.733 267.395,69.419 266.411 C 61.634 260.582,53.833 250.713,51.624 243.900 C 51.082 242.227,50.630 242.023,50.014 243.174 " stroke="none" fill="#bbc3c3" fill-rule="evenodd"></path><path id="path2" d="M348.376 160.700 C 345.500 169.577,332.330 183.859,322.400 188.871 C 321.850 189.148,320.680 189.851,319.800 190.431 C 314.810 193.723,298.841 200.748,289.800 203.628 C 287.600 204.329,285.440 205.039,285.000 205.205 C 284.560 205.372,283.390 205.730,282.400 206.001 C 281.410 206.271,280.150 206.631,279.600 206.800 C 277.870 207.332,275.520 207.934,271.800 208.800 C 269.820 209.261,267.570 209.796,266.800 209.989 C 266.030 210.182,264.320 210.548,263.000 210.803 C 261.680 211.057,259.880 211.425,259.000 211.621 C 257.538 211.946,254.681 212.420,247.013 213.611 C 237.760 215.047,223.272 216.357,213.800 216.613 C 209.400 216.732,204.495 216.928,202.900 217.049 L 200.000 217.268 200.000 225.297 L 200.000 233.327 210.900 233.052 C 216.895 232.901,223.510 232.603,225.600 232.390 C 227.690 232.177,231.380 231.815,233.800 231.585 C 238.844 231.107,243.623 230.528,246.800 230.009 C 248.010 229.811,250.350 229.443,252.000 229.190 C 258.937 228.129,271.467 225.438,278.200 223.563 C 283.474 222.095,284.209 221.872,289.436 220.161 C 322.428 209.357,344.819 192.053,349.026 174.109 C 349.399 172.518,349.861 171.314,350.052 171.432 C 350.243 171.550,350.400 169.106,350.400 166.000 C 350.400 162.337,350.259 160.440,350.000 160.600 C 349.780 160.736,349.600 160.477,349.600 160.024 C 349.600 158.692,348.902 159.078,348.376 160.700 M348.376 243.900 C 345.573 252.550,331.642 267.874,323.100 271.702 C 322.495 271.973,322.000 272.310,322.000 272.451 C 322.000 272.592,321.685 272.810,321.300 272.936 C 320.915 273.062,319.700 273.711,318.600 274.379 C 312.265 278.227,298.713 284.168,290.200 286.830 C 288.660 287.311,287.040 287.842,286.600 288.009 C 285.230 288.529,281.466 289.676,280.000 290.019 C 279.230 290.199,277.880 290.551,277.000 290.800 C 274.476 291.515,269.685 292.697,267.200 293.218 C 266.210 293.425,264.590 293.777,263.600 293.999 C 256.351 295.623,243.663 297.559,233.600 298.575 C 230.190 298.920,226.320 299.316,225.000 299.457 C 223.680 299.598,217.560 299.822,211.400 299.956 L 200.200 300.200 200.200 308.394 L 200.200 316.587 208.000 316.487 C 219.423 316.341,234.737 315.142,245.000 313.591 C 246.320 313.391,248.750 313.023,250.400 312.773 C 266.729 310.296,290.945 303.991,298.095 300.353 C 298.477 300.159,298.967 300.000,299.185 300.000 C 299.402 300.000,300.709 299.492,302.090 298.870 C 303.470 298.249,305.230 297.498,306.000 297.201 C 327.627 288.859,346.837 270.564,349.379 255.889 C 349.526 255.041,349.815 254.486,350.038 254.623 C 350.611 254.978,350.445 244.061,349.863 243.129 C 349.202 242.072,348.921 242.218,348.376 243.900 " stroke="none" fill="#ebf3f3" fill-rule="evenodd"></path><path id="path3" d="M50.800 142.927 C 50.800 143.243,50.530 143.726,50.200 144.000 C 48.691 145.252,49.518 158.000,51.108 158.000 C 51.309 158.000,51.702 158.765,51.982 159.700 C 52.761 162.301,55.687 167.782,57.800 170.600 C 62.747 177.197,71.665 184.769,80.150 189.578 C 80.837 189.968,82.210 190.756,83.200 191.330 C 87.208 193.654,96.204 197.849,101.491 199.859 C 106.558 201.786,113.559 204.131,117.600 205.256 C 118.370 205.470,119.630 205.827,120.400 206.049 C 121.170 206.271,122.430 206.609,123.200 206.800 C 123.970 206.991,125.320 207.352,126.200 207.604 C 127.080 207.855,128.520 208.217,129.400 208.408 C 130.280 208.600,131.810 208.957,132.800 209.203 C 133.790 209.449,135.500 209.825,136.600 210.038 C 137.700 210.251,139.500 210.607,140.600 210.829 C 155.572 213.844,173.143 215.728,191.300 216.264 L 200.000 216.521 200.000 208.260 L 200.000 200.000 193.959 200.000 C 184.923 200.000,166.445 198.581,157.400 197.192 C 137.276 194.103,121.278 190.403,109.000 185.997 C 102.094 183.519,100.279 182.791,93.600 179.815 C 85.165 176.058,73.006 168.981,69.394 165.726 C 68.950 165.327,67.565 164.140,66.316 163.088 C 59.704 157.522,51.600 146.590,51.600 143.235 C 51.600 143.022,51.420 142.736,51.200 142.600 C 50.980 142.464,50.800 142.611,50.800 142.927 M50.600 226.800 C 50.460 227.240,50.173 227.600,49.960 227.600 C 49.030 227.600,49.592 240.376,50.550 241.004 C 51.036 241.322,51.673 242.261,51.966 243.091 C 52.625 244.956,54.863 249.728,55.206 250.000 C 55.345 250.110,55.558 250.470,55.681 250.800 C 57.114 254.669,66.789 264.091,74.956 269.570 C 79.364 272.528,80.546 273.240,84.800 275.504 C 86.230 276.264,87.850 277.131,88.400 277.429 C 92.998 279.920,101.953 283.495,111.000 286.452 C 119.010 289.070,120.480 289.508,125.600 290.800 C 126.590 291.050,127.953 291.422,128.628 291.627 C 129.304 291.832,130.328 292.000,130.905 292.000 C 131.481 292.000,132.052 292.161,132.174 292.358 C 132.295 292.555,133.071 292.815,133.897 292.937 C 134.724 293.059,136.300 293.343,137.400 293.567 C 145.352 295.187,154.700 296.657,163.000 297.593 C 173.377 298.763,183.325 299.429,194.000 299.668 L 199.800 299.799 199.908 291.732 L 200.016 283.665 197.508 283.446 C 196.129 283.325,191.310 283.126,186.800 283.003 C 182.290 282.880,176.800 282.602,174.600 282.386 C 172.400 282.170,168.710 281.807,166.400 281.580 C 149.766 279.945,129.840 275.899,113.600 270.859 C 109.680 269.642,104.424 267.757,104.128 267.462 C 103.984 267.318,103.625 267.200,103.329 267.200 C 103.033 267.200,101.983 266.840,100.996 266.400 C 100.008 265.960,98.392 265.240,97.404 264.800 C 96.417 264.360,95.522 264.000,95.416 264.000 C 94.947 264.000,87.009 260.093,83.000 257.889 C 67.830 249.550,56.582 238.812,52.528 228.797 C 51.334 225.847,51.009 225.510,50.600 226.800 M50.598 310.006 C 50.457 310.449,50.175 310.708,49.971 310.582 C 49.749 310.445,49.600 312.996,49.600 316.953 C 49.600 320.921,49.759 323.651,50.000 323.800 C 50.220 323.936,50.400 324.667,50.400 325.424 C 50.400 326.181,50.580 326.800,50.800 326.800 C 51.020 326.800,51.200 327.149,51.200 327.576 C 51.200 328.003,51.380 328.464,51.600 328.600 C 51.820 328.736,52.000 329.287,52.000 329.824 C 52.000 330.361,52.180 330.800,52.400 330.800 C 52.620 330.800,52.800 331.160,52.800 331.600 C 52.800 332.040,52.980 332.400,53.200 332.400 C 53.420 332.400,53.600 332.720,53.600 333.112 C 53.600 333.503,53.960 334.083,54.400 334.400 C 54.840 334.717,55.200 335.257,55.200 335.600 C 55.200 335.943,55.560 336.483,56.000 336.800 C 56.440 337.117,56.800 337.607,56.800 337.888 C 56.800 338.170,56.980 338.400,57.200 338.400 C 57.420 338.400,57.600 338.598,57.600 338.840 C 57.600 339.081,58.140 339.783,58.800 340.400 C 59.460 341.017,60.000 341.637,60.000 341.778 C 60.000 342.171,64.129 346.400,64.514 346.400 C 64.700 346.400,65.729 347.300,66.800 348.400 C 67.871 349.500,68.958 350.400,69.214 350.400 C 69.470 350.400,70.183 350.940,70.800 351.600 C 71.417 352.260,72.169 352.800,72.472 352.800 C 72.775 352.800,73.283 353.160,73.600 353.600 C 73.917 354.040,74.431 354.400,74.741 354.400 C 75.052 354.400,75.643 354.789,76.056 355.264 C 76.468 355.739,76.905 356.028,77.027 355.906 C 77.149 355.784,77.715 356.115,78.283 356.642 C 78.852 357.169,79.561 357.600,79.858 357.600 C 80.156 357.600,80.400 357.772,80.400 357.982 C 80.400 358.192,81.030 358.482,81.800 358.626 C 82.570 358.771,83.200 359.021,83.200 359.182 C 83.200 359.343,84.055 359.908,85.100 360.437 C 86.145 360.967,87.060 361.535,87.133 361.700 C 87.207 361.865,87.524 362.000,87.839 362.000 C 88.153 362.000,88.768 362.180,89.205 362.400 C 89.642 362.620,90.358 362.980,90.795 363.200 C 91.232 363.420,91.862 363.600,92.195 363.600 C 92.528 363.600,92.800 363.780,92.800 364.000 C 92.800 364.220,93.160 364.400,93.600 364.400 C 94.040 364.400,94.400 364.580,94.400 364.800 C 94.400 365.020,94.760 365.200,95.200 365.200 C 95.640 365.200,96.000 365.380,96.000 365.600 C 96.000 365.820,96.450 366.000,97.000 366.000 C 97.550 366.000,98.000 366.180,98.000 366.400 C 98.000 366.620,98.349 366.800,98.776 366.800 C 99.203 366.800,99.664 366.980,99.800 367.200 C 99.936 367.420,100.487 367.600,101.024 367.600 C 101.561 367.600,102.000 367.780,102.000 368.000 C 102.000 368.220,102.349 368.400,102.776 368.400 C 103.203 368.400,103.664 368.580,103.800 368.800 C 103.936 369.020,104.487 369.200,105.024 369.200 C 105.561 369.200,106.000 369.380,106.000 369.600 C 106.000 369.820,106.540 370.000,107.200 370.000 C 107.860 370.000,108.400 370.180,108.400 370.400 C 108.400 370.620,108.940 370.800,109.600 370.800 C 110.260 370.800,110.800 370.980,110.800 371.200 C 110.800 371.420,111.310 371.600,111.933 371.600 C 112.557 371.600,113.190 371.723,113.341 371.874 C 113.741 372.274,116.483 373.187,117.305 373.194 C 117.693 373.197,118.323 373.372,118.705 373.582 C 119.724 374.141,124.448 375.200,125.926 375.200 C 126.627 375.200,127.200 375.380,127.200 375.600 C 127.200 375.820,127.920 376.000,128.800 376.000 C 129.680 376.000,130.400 376.180,130.400 376.400 C 130.400 376.620,131.210 376.800,132.200 376.800 C 133.190 376.800,134.000 376.980,134.000 377.200 C 134.000 377.420,134.810 377.600,135.800 377.600 C 136.790 377.600,137.600 377.780,137.600 378.000 C 137.600 378.220,138.590 378.400,139.800 378.400 C 141.010 378.400,142.000 378.580,142.000 378.800 C 142.000 379.020,142.900 379.200,144.000 379.200 C 145.100 379.200,146.000 379.380,146.000 379.600 C 146.000 379.822,147.067 380.000,148.400 380.000 C 149.733 380.000,150.800 380.178,150.800 380.400 C 150.800 380.625,151.925 380.800,153.376 380.800 C 154.793 380.800,156.064 380.980,156.200 381.200 C 156.336 381.420,157.776 381.600,159.400 381.600 C 161.024 381.600,162.464 381.780,162.600 382.000 C 162.736 382.220,164.446 382.400,166.400 382.400 C 168.354 382.400,170.064 382.580,170.200 382.800 C 170.346 383.036,172.730 383.200,176.000 383.200 C 179.270 383.200,181.654 383.364,181.800 383.600 C 181.953 383.847,185.471 384.000,191.024 384.000 L 200.000 384.000 200.000 375.461 L 200.000 366.923 195.137 366.661 C 192.463 366.518,188.558 366.400,186.461 366.400 C 184.363 366.400,180.566 366.219,178.023 365.997 C 167.888 365.114,159.186 364.186,155.600 363.606 C 154.390 363.410,152.050 363.041,150.400 362.785 C 143.701 361.748,129.562 358.817,125.400 357.604 C 124.740 357.412,123.390 357.041,122.400 356.781 C 121.410 356.520,120.150 356.170,119.600 356.002 C 119.050 355.834,117.250 355.292,115.600 354.798 C 113.950 354.304,111.880 353.633,111.000 353.307 C 110.120 352.981,108.359 352.379,107.086 351.969 C 105.814 351.560,104.194 350.969,103.486 350.657 C 102.779 350.345,100.670 349.494,98.800 348.767 C 81.791 342.153,64.647 330.408,57.292 320.330 C 54.838 316.968,51.611 311.051,51.604 309.900 C 51.598 308.943,50.913 309.015,50.598 310.006 M338.091 343.584 C 337.592 344.001,337.322 344.427,337.491 344.530 C 337.661 344.633,338.123 344.286,338.519 343.759 C 339.378 342.612,339.297 342.579,338.091 343.584 M336.060 345.442 C 335.331 346.266,335.800 346.657,336.581 345.876 C 336.921 345.536,337.200 345.154,337.200 345.029 C 337.200 344.609,336.606 344.824,336.060 345.442 M330.886 349.824 C 330.383 350.361,330.131 350.800,330.325 350.800 C 330.750 350.800,332.400 349.411,332.400 349.053 C 332.400 348.553,331.783 348.867,330.886 349.824 M271.800 375.600 C 271.664 375.820,271.923 376.000,272.376 376.000 C 272.829 376.000,273.200 375.820,273.200 375.600 C 273.200 375.380,272.941 375.200,272.624 375.200 C 272.307 375.200,271.936 375.380,271.800 375.600 M236.000 381.915 C 236.000 382.369,237.541 382.419,237.816 381.975 C 237.943 381.769,237.587 381.600,237.024 381.600 C 236.461 381.600,236.000 381.742,236.000 381.915 " stroke="none" fill="#7c8c8c" fill-rule="evenodd"></path><path id="path4" d="M49.606 89.267 C 49.611 90.533,49.717 90.838,50.000 90.400 C 50.315 89.913,50.389 89.966,50.394 90.681 C 50.397 91.166,50.602 92.066,50.850 92.681 C 51.097 93.297,51.434 94.160,51.599 94.600 C 52.827 97.881,56.236 103.575,58.727 106.508 C 60.761 108.902,66.604 114.645,68.200 115.819 C 69.080 116.466,69.890 117.106,70.000 117.240 C 70.110 117.375,71.640 118.467,73.400 119.669 C 76.264 121.623,77.444 122.354,81.800 124.874 C 82.460 125.256,83.990 126.062,85.200 126.665 C 86.410 127.269,87.490 127.861,87.600 127.982 C 87.710 128.103,88.250 128.404,88.800 128.652 C 89.350 128.899,90.970 129.645,92.400 130.308 C 100.063 133.864,110.039 137.511,117.377 139.438 C 118.709 139.788,120.160 140.225,120.600 140.407 C 121.449 140.760,122.968 141.119,125.104 141.473 C 125.821 141.591,126.506 141.849,126.627 142.044 C 126.748 142.240,127.546 142.400,128.400 142.400 C 129.254 142.400,130.064 142.580,130.200 142.800 C 130.336 143.020,131.056 143.200,131.800 143.200 C 132.544 143.200,133.264 143.380,133.400 143.600 C 133.536 143.820,134.411 144.000,135.344 144.000 C 136.277 144.000,137.211 144.162,137.420 144.359 C 137.629 144.556,138.520 144.819,139.400 144.943 C 140.280 145.067,142.080 145.362,143.400 145.598 C 159.941 148.556,172.607 149.828,189.700 150.247 L 199.600 150.489 199.600 174.996 C 199.600 196.212,199.680 199.568,200.196 199.996 C 200.651 200.374,203.080 200.433,210.496 200.247 C 228.737 199.788,243.901 198.145,260.800 194.795 C 262.010 194.556,263.720 194.260,264.600 194.139 C 265.480 194.017,266.371 193.756,266.580 193.559 C 266.789 193.362,267.633 193.200,268.456 193.200 C 269.279 193.200,270.064 193.020,270.200 192.800 C 270.336 192.580,271.056 192.400,271.800 192.400 C 272.544 192.400,273.264 192.220,273.400 192.000 C 273.536 191.780,274.256 191.600,275.000 191.600 C 275.744 191.600,276.464 191.420,276.600 191.200 C 276.736 190.980,277.366 190.800,278.000 190.800 C 278.634 190.800,279.264 190.620,279.400 190.400 C 279.536 190.180,280.058 190.000,280.559 190.000 C 281.354 190.000,296.034 185.383,298.200 184.451 C 298.640 184.262,299.540 183.882,300.200 183.607 C 300.860 183.332,301.713 182.948,302.095 182.753 C 302.477 182.559,303.062 182.400,303.395 182.400 C 303.728 182.400,304.000 182.220,304.000 182.000 C 304.000 181.780,304.272 181.600,304.605 181.600 C 304.938 181.600,305.523 181.436,305.905 181.236 C 306.287 181.035,308.670 179.859,311.200 178.622 C 313.730 177.385,316.700 175.831,317.800 175.168 C 318.900 174.506,320.115 173.862,320.500 173.736 C 320.885 173.610,321.200 173.348,321.200 173.153 C 321.200 172.959,321.389 172.800,321.621 172.800 C 321.999 172.800,328.713 168.569,329.200 168.024 C 329.310 167.901,330.210 167.175,331.200 166.412 C 334.746 163.676,339.637 158.943,341.545 156.400 C 342.123 155.630,342.698 154.910,342.824 154.800 C 343.351 154.339,345.600 150.824,345.600 150.461 C 345.600 150.244,345.735 150.007,345.900 149.933 C 346.315 149.749,348.000 146.441,348.000 145.811 C 348.000 144.773,349.126 144.271,349.269 145.245 C 349.499 146.810,350.400 146.622,350.400 145.010 C 350.400 144.208,350.233 143.656,350.029 143.782 C 349.825 143.908,349.543 143.649,349.402 143.206 C 349.098 142.248,348.400 142.130,348.400 143.035 C 348.400 144.317,344.813 151.090,342.487 154.200 C 335.056 164.137,319.932 174.802,304.000 181.338 C 303.010 181.745,301.437 182.420,300.504 182.838 C 299.572 183.257,298.573 183.600,298.284 183.600 C 297.996 183.600,297.589 183.753,297.380 183.940 C 296.922 184.351,286.312 187.855,280.203 189.614 C 272.024 191.969,257.254 195.096,248.200 196.390 C 246.440 196.642,243.920 197.007,242.600 197.201 C 240.331 197.535,237.065 197.882,227.800 198.775 C 221.487 199.383,206.497 200.093,203.200 199.940 L 200.200 199.800 200.097 174.900 L 199.994 150.000 195.505 150.000 C 187.039 150.000,165.596 148.418,157.400 147.188 C 156.080 146.990,153.650 146.631,152.000 146.389 C 132.956 143.605,109.908 137.471,97.600 131.912 C 96.610 131.465,95.440 130.957,95.000 130.784 C 76.267 123.411,59.093 109.398,53.218 96.691 C 51.715 93.440,51.411 92.500,50.874 89.433 C 50.481 87.184,49.598 87.069,49.606 89.267 M347.413 160.500 C 346.801 162.095,346.038 163.821,345.718 164.335 C 345.398 164.849,345.230 165.364,345.346 165.479 C 345.600 165.734,347.209 162.441,347.973 160.100 C 348.278 159.165,348.769 158.400,349.064 158.400 C 349.359 158.400,349.600 158.220,349.600 158.000 C 349.600 156.620,348.357 158.041,347.413 160.500 M50.400 158.724 C 50.400 158.939,50.685 159.224,51.033 159.357 C 51.423 159.507,51.606 159.418,51.508 159.125 C 51.309 158.527,50.400 158.198,50.400 158.724 M52.400 162.620 C 52.400 163.072,53.666 165.267,53.831 165.102 C 54.020 164.914,52.847 162.400,52.571 162.400 C 52.477 162.400,52.400 162.499,52.400 162.620 M344.222 167.022 C 343.845 167.598,343.616 168.149,343.714 168.247 C 343.812 168.345,344.200 167.954,344.578 167.378 C 344.955 166.802,345.184 166.251,345.086 166.153 C 344.988 166.055,344.600 166.446,344.222 167.022 M55.415 168.285 C 56.267 169.765,58.800 173.037,58.800 172.657 C 58.800 172.416,55.376 167.624,54.900 167.200 C 54.777 167.090,55.008 167.578,55.415 168.285 M341.700 170.598 C 341.425 170.911,341.200 171.354,341.200 171.583 C 341.200 171.812,341.020 172.000,340.800 172.000 C 340.580 172.000,340.400 172.191,340.400 172.424 C 340.400 173.039,341.041 172.547,342.009 171.188 C 342.861 169.990,342.628 169.544,341.700 170.598 M49.873 171.061 C 49.435 171.499,49.553 173.676,50.000 173.400 C 50.220 173.264,50.403 173.478,50.406 173.876 C 50.420 175.630,54.432 184.610,55.934 186.249 C 56.312 186.662,57.060 187.630,57.596 188.400 C 60.930 193.188,74.093 204.435,78.800 206.516 C 79.130 206.662,80.300 207.319,81.400 207.976 C 83.354 209.144,93.412 214.185,95.000 214.792 C 95.440 214.961,96.610 215.471,97.600 215.926 C 102.069 217.981,116.343 222.808,117.800 222.757 C 118.240 222.741,115.900 221.842,112.600 220.758 C 105.145 218.308,101.154 216.788,93.600 213.518 C 74.657 205.318,58.836 192.305,53.315 180.382 C 52.199 177.973,50.802 173.677,50.794 172.634 C 50.786 171.614,50.245 170.689,49.873 171.061 M60.703 175.039 C 62.300 176.989,65.201 179.665,69.300 182.966 C 70.345 183.808,71.200 184.405,71.200 184.293 C 71.200 184.182,69.930 183.064,68.379 181.811 C 66.827 180.557,64.089 178.061,62.296 176.265 C 59.990 173.957,59.523 173.598,60.703 175.039 M336.800 176.344 C 334.680 178.555,328.316 183.960,326.896 184.754 C 326.517 184.966,326.306 185.239,326.427 185.360 C 326.548 185.481,328.156 184.386,330.001 182.928 C 333.705 179.999,340.030 174.016,339.400 174.036 C 339.180 174.044,338.010 175.082,336.800 176.344 M324.629 186.209 C 324.205 186.529,323.938 186.871,324.035 186.969 C 324.132 187.066,324.659 186.802,325.206 186.382 C 325.753 185.961,326.020 185.620,325.800 185.622 C 325.580 185.624,325.053 185.888,324.629 186.209 M74.000 186.295 C 74.000 186.684,75.614 187.719,75.851 187.482 C 75.947 187.386,75.569 187.010,75.012 186.645 C 74.456 186.280,74.000 186.122,74.000 186.295 M321.492 188.283 C 320.663 188.852,320.062 189.395,320.156 189.489 C 320.327 189.660,323.600 187.624,323.600 187.347 C 323.600 187.004,322.906 187.313,321.492 188.283 M76.400 187.927 C 76.400 188.116,76.850 188.477,77.400 188.727 C 77.950 188.978,78.400 189.117,78.400 189.037 C 78.400 188.957,77.950 188.597,77.400 188.237 C 76.850 187.876,76.400 187.737,76.400 187.927 M79.600 189.964 C 80.150 190.414,80.780 190.783,81.000 190.785 C 81.428 190.788,80.705 190.234,79.400 189.560 C 78.869 189.285,78.936 189.421,79.600 189.964 M318.000 190.400 C 317.450 190.830,317.180 191.182,317.400 191.182 C 317.620 191.182,318.250 190.830,318.800 190.400 C 319.350 189.970,319.620 189.618,319.400 189.618 C 319.180 189.618,318.550 189.970,318.000 190.400 M82.400 191.564 C 82.950 192.014,83.580 192.383,83.800 192.385 C 84.228 192.388,83.505 191.834,82.200 191.160 C 81.669 190.885,81.736 191.021,82.400 191.564 M309.600 194.800 C 308.390 195.439,307.530 195.971,307.688 195.981 C 308.107 196.009,312.400 194.011,312.400 193.788 C 312.400 193.424,311.780 193.648,309.600 194.800 M87.600 194.215 C 87.600 194.515,95.232 198.102,95.436 197.897 C 95.523 197.811,94.650 197.321,93.497 196.809 C 92.344 196.297,90.545 195.452,89.500 194.932 C 88.455 194.412,87.600 194.089,87.600 194.215 M304.600 197.017 C 303.280 197.558,301.840 198.156,301.400 198.347 C 300.960 198.537,300.060 198.918,299.400 199.193 C 298.740 199.468,297.887 199.852,297.505 200.047 C 297.123 200.241,296.448 200.400,296.005 200.400 C 295.562 200.400,295.200 200.580,295.200 200.800 C 295.200 201.351,295.195 201.352,298.690 199.968 C 303.687 197.988,307.200 196.425,307.200 196.181 C 307.200 195.940,307.329 195.899,304.600 197.017 M97.600 198.966 C 98.150 199.260,99.050 199.612,99.600 199.749 C 100.150 199.886,99.880 199.652,99.000 199.229 C 97.190 198.358,96.068 198.148,97.600 198.966 M293.000 201.600 C 292.708 202.073,293.099 202.073,294.200 201.600 C 294.971 201.269,294.969 201.255,294.124 201.228 C 293.642 201.213,293.136 201.380,293.000 201.600 M290.600 202.400 C 290.308 202.873,290.699 202.873,291.800 202.400 C 292.571 202.069,292.569 202.055,291.724 202.028 C 291.242 202.013,290.736 202.180,290.600 202.400 M288.200 203.200 C 287.885 203.709,288.812 203.709,289.600 203.200 C 290.088 202.885,290.036 202.811,289.324 202.806 C 288.842 202.803,288.336 202.980,288.200 203.200 M285.800 204.000 C 285.508 204.473,285.899 204.473,287.000 204.000 C 287.771 203.669,287.769 203.655,286.924 203.628 C 286.442 203.613,285.936 203.780,285.800 204.000 M115.000 205.200 C 115.136 205.420,115.642 205.587,116.124 205.572 C 116.969 205.545,116.971 205.531,116.200 205.200 C 115.099 204.727,114.708 204.727,115.000 205.200 M280.600 205.600 C 280.308 206.073,280.699 206.073,281.800 205.600 C 282.571 205.269,282.569 205.255,281.724 205.228 C 281.242 205.213,280.736 205.380,280.600 205.600 M117.600 206.000 C 117.930 206.213,118.470 206.388,118.800 206.388 C 119.333 206.388,119.333 206.345,118.800 206.000 C 118.470 205.787,117.930 205.612,117.600 205.612 C 117.067 205.612,117.067 205.655,117.600 206.000 M120.600 206.800 C 120.736 207.020,121.242 207.187,121.724 207.172 C 122.569 207.145,122.571 207.131,121.800 206.800 C 120.699 206.327,120.308 206.327,120.600 206.800 M274.800 207.200 C 274.800 207.701,275.224 207.701,276.000 207.200 C 276.485 206.886,276.428 206.811,275.700 206.806 C 275.205 206.803,274.800 206.980,274.800 207.200 M126.600 208.400 C 127.040 208.589,127.760 208.738,128.200 208.732 C 128.843 208.723,128.804 208.657,128.000 208.400 C 126.632 207.962,125.581 207.962,126.600 208.400 M268.200 208.800 C 267.885 209.309,268.812 209.309,269.600 208.800 C 270.088 208.485,270.036 208.411,269.324 208.406 C 268.842 208.403,268.336 208.580,268.200 208.800 M130.000 209.194 C 130.330 209.411,131.035 209.591,131.567 209.594 C 132.851 209.602,132.525 209.375,130.800 209.058 C 129.815 208.877,129.578 208.918,130.000 209.194 M264.800 209.600 C 264.800 210.101,265.224 210.101,266.000 209.600 C 266.485 209.286,266.428 209.211,265.700 209.206 C 265.205 209.203,264.800 209.380,264.800 209.600 M133.200 209.979 C 133.530 210.204,134.325 210.391,134.967 210.394 C 136.504 210.402,136.184 210.170,134.200 209.838 C 133.054 209.646,132.770 209.686,133.200 209.979 M260.400 210.400 L 259.400 210.720 260.400 210.732 C 260.950 210.738,261.760 210.589,262.200 210.400 L 263.000 210.056 262.200 210.068 C 261.760 210.074,260.950 210.224,260.400 210.400 M137.400 210.781 C 138.168 211.129,140.310 211.356,139.967 211.053 C 139.875 210.972,139.080 210.796,138.200 210.662 C 137.085 210.493,136.842 210.529,137.400 210.781 M256.000 211.200 C 255.025 211.512,255.030 211.521,256.200 211.532 C 256.860 211.538,257.760 211.389,258.200 211.200 C 259.294 210.730,257.467 210.730,256.000 211.200 M141.000 211.597 C 141.764 211.928,144.714 212.155,144.367 211.856 C 144.275 211.777,143.300 211.609,142.200 211.482 C 140.913 211.333,140.485 211.374,141.000 211.597 M251.400 212.000 L 250.200 212.305 251.600 212.325 C 252.370 212.335,253.360 212.189,253.800 212.000 C 254.864 211.543,253.197 211.543,251.400 212.000 M146.433 212.546 C 146.525 212.626,147.590 212.794,148.800 212.919 C 150.220 213.066,150.646 213.029,150.000 212.813 C 149.009 212.483,146.113 212.265,146.433 212.546 M245.600 212.816 C 238.186 213.820,236.179 214.063,232.400 214.416 C 224.862 215.121,216.748 215.654,208.600 215.980 L 200.600 216.299 210.000 216.161 C 221.007 215.999,227.692 215.517,240.400 213.966 C 247.241 213.131,248.846 212.887,249.083 212.650 C 249.369 212.364,248.698 212.396,245.600 212.816 M152.800 213.599 C 156.438 214.191,162.118 214.816,162.290 214.643 C 162.388 214.546,161.417 214.356,160.134 214.221 C 158.850 214.086,156.825 213.801,155.633 213.588 C 154.442 213.374,152.912 213.224,152.233 213.253 C 151.246 213.296,151.359 213.365,152.800 213.599 M163.233 214.945 C 163.325 215.025,164.930 215.188,166.800 215.308 C 169.173 215.460,169.717 215.423,168.600 215.186 C 167.016 214.850,162.912 214.665,163.233 214.945 M170.833 215.747 C 170.925 215.827,173.070 215.988,175.600 216.104 C 178.654 216.244,179.461 216.208,178.000 215.997 C 175.727 215.669,170.539 215.487,170.833 215.747 M190.380 216.835 C 195.319 217.036,199.494 217.065,199.657 216.900 C 199.820 216.735,195.778 216.571,190.676 216.535 L 181.400 216.471 190.380 216.835 M118.936 223.096 C 119.076 223.322,119.687 223.607,120.295 223.729 C 120.903 223.851,122.210 224.155,123.200 224.404 C 124.190 224.654,125.587 224.955,126.304 225.073 C 127.021 225.192,127.706 225.449,127.827 225.644 C 127.948 225.840,128.746 226.000,129.600 226.000 C 130.454 226.000,131.264 226.180,131.400 226.400 C 131.536 226.620,132.256 226.800,133.000 226.800 C 133.744 226.800,134.464 226.980,134.600 227.200 C 134.736 227.420,135.611 227.600,136.544 227.600 C 137.477 227.600,138.411 227.763,138.620 227.961 C 138.829 228.160,139.810 228.421,140.800 228.542 C 141.790 228.663,143.680 228.961,145.000 229.203 C 146.320 229.445,148.300 229.732,149.400 229.841 C 150.500 229.950,151.760 230.202,152.200 230.401 C 152.640 230.601,153.990 230.849,155.200 230.953 C 156.410 231.057,159.020 231.341,161.000 231.585 C 169.840 232.674,179.156 233.347,192.300 233.846 L 199.600 234.123 199.600 258.385 C 199.600 278.129,199.701 282.785,200.140 283.386 C 200.644 284.075,201.153 284.106,207.640 283.848 C 226.001 283.118,235.612 282.257,250.600 279.999 C 252.140 279.767,254.210 279.475,255.200 279.350 C 256.190 279.225,257.171 278.960,257.380 278.761 C 257.589 278.563,258.523 278.400,259.456 278.400 C 260.389 278.400,261.264 278.220,261.400 278.000 C 261.536 277.780,262.436 277.600,263.400 277.600 C 264.364 277.600,265.264 277.420,265.400 277.200 C 265.536 276.980,266.346 276.800,267.200 276.800 C 268.054 276.800,268.864 276.620,269.000 276.400 C 269.136 276.180,269.856 276.000,270.600 276.000 C 271.344 276.000,272.064 275.820,272.200 275.600 C 272.336 275.380,272.968 275.200,273.605 275.200 C 274.241 275.200,275.176 275.039,275.681 274.842 C 276.510 274.518,277.707 274.168,281.400 273.166 C 283.492 272.599,296.974 268.286,297.600 267.983 C 298.295 267.647,300.242 266.830,301.400 266.387 C 302.616 265.923,305.260 264.780,306.561 264.156 C 307.200 263.850,307.965 263.600,308.261 263.600 C 308.558 263.600,308.800 263.420,308.800 263.200 C 308.800 262.980,309.160 262.800,309.600 262.800 C 310.040 262.800,310.400 262.620,310.400 262.400 C 310.400 262.180,310.760 262.000,311.200 262.000 C 311.640 262.000,312.000 261.820,312.000 261.600 C 312.000 261.380,312.360 261.200,312.800 261.200 C 313.240 261.200,313.600 261.020,313.600 260.800 C 313.600 260.580,313.960 260.400,314.400 260.400 C 314.840 260.400,315.200 260.262,315.200 260.094 C 315.200 259.926,315.875 259.478,316.700 259.099 C 323.123 256.147,334.361 247.823,339.035 242.557 C 340.336 241.092,341.591 239.692,341.824 239.447 C 343.391 237.795,347.438 230.921,348.150 228.700 C 348.451 227.761,349.058 227.813,349.316 228.800 C 349.637 230.030,350.400 229.748,350.400 228.400 C 350.400 227.740,350.232 227.200,350.027 227.200 C 349.822 227.200,349.534 226.822,349.387 226.360 C 349.044 225.279,348.736 225.662,347.584 228.600 C 340.900 245.641,317.543 261.670,285.000 271.546 C 274.555 274.716,261.603 277.682,251.600 279.195 C 249.950 279.445,247.610 279.807,246.400 280.001 C 242.046 280.696,234.080 281.566,224.400 282.402 C 221.650 282.640,215.080 282.872,209.800 282.917 L 200.200 283.000 200.000 258.200 L 199.800 233.400 187.800 232.929 C 172.720 232.337,166.086 231.746,151.196 229.665 C 145.464 228.864,133.044 226.326,126.000 224.516 C 118.573 222.608,118.643 222.622,118.936 223.096 M347.805 242.649 C 347.472 243.446,347.200 244.310,347.200 244.569 C 347.200 244.828,347.040 245.211,346.845 245.420 C 346.650 245.629,346.359 246.250,346.200 246.800 C 345.673 248.616,346.637 247.099,347.597 244.600 C 348.105 243.280,348.797 241.975,349.136 241.700 C 349.687 241.254,349.681 241.200,349.082 241.200 C 348.689 241.200,348.160 241.800,347.805 242.649 M51.628 243.692 C 51.582 244.165,52.886 247.248,53.058 247.075 C 53.145 246.988,52.866 246.125,52.437 245.158 C 52.008 244.191,51.644 243.531,51.628 243.692 M54.610 250.300 C 55.818 252.193,58.676 256.157,59.557 257.161 C 61.091 258.910,60.431 257.627,58.700 255.494 C 57.765 254.342,56.396 252.455,55.658 251.300 C 54.920 250.145,54.225 249.200,54.112 249.200 C 54.000 249.200,54.224 249.695,54.610 250.300 M49.873 254.261 C 49.723 254.411,49.603 255.178,49.606 255.967 C 49.611 257.039,49.710 257.249,50.000 256.800 C 50.324 256.299,50.389 256.328,50.394 256.973 C 50.414 259.534,55.138 269.448,57.172 271.200 C 57.300 271.310,57.941 272.120,58.597 273.000 C 61.509 276.908,68.224 282.885,73.876 286.600 C 75.374 287.585,76.780 288.537,77.000 288.715 C 77.220 288.894,78.210 289.481,79.200 290.020 C 80.190 290.559,81.090 291.090,81.200 291.201 C 81.310 291.311,81.940 291.671,82.600 292.000 C 83.260 292.329,83.890 292.693,84.000 292.809 C 84.409 293.239,91.019 296.406,91.500 296.403 C 91.775 296.401,92.000 296.580,92.000 296.800 C 92.000 297.020,92.360 297.200,92.800 297.200 C 93.240 297.200,93.600 297.380,93.600 297.600 C 93.600 297.820,93.872 298.000,94.204 298.000 C 94.537 298.000,95.662 298.378,96.704 298.840 C 97.747 299.302,98.960 299.818,99.400 299.986 C 100.765 300.509,102.158 301.075,103.200 301.528 C 105.393 302.482,117.826 306.400,118.661 306.400 C 119.152 306.400,119.664 306.580,119.800 306.800 C 119.936 307.020,120.566 307.200,121.200 307.200 C 121.834 307.200,122.464 307.380,122.600 307.600 C 122.736 307.820,123.456 308.000,124.200 308.000 C 124.944 308.000,125.664 308.180,125.800 308.400 C 125.936 308.620,126.656 308.800,127.400 308.800 C 128.144 308.800,128.864 308.980,129.000 309.200 C 129.136 309.420,129.831 309.600,130.544 309.600 C 131.257 309.600,132.011 309.762,132.220 309.959 C 132.429 310.156,133.320 310.420,134.200 310.544 C 138.122 311.097,139.049 311.271,139.800 311.596 C 140.240 311.786,141.500 312.056,142.600 312.197 C 143.700 312.337,145.590 312.626,146.800 312.840 C 154.872 314.262,162.144 315.206,171.200 316.008 C 175.779 316.413,191.026 317.118,196.297 317.169 L 199.594 317.200 199.702 341.700 L 199.809 366.200 199.805 341.400 L 199.800 316.600 193.200 316.523 C 172.497 316.283,148.159 313.249,128.200 308.420 C 118.399 306.049,105.763 302.112,102.305 300.353 C 101.923 300.159,101.426 300.000,101.201 300.000 C 100.976 300.000,99.938 299.622,98.896 299.160 C 97.853 298.698,96.640 298.178,96.200 298.004 C 80.771 291.902,65.167 280.869,57.581 270.697 C 54.300 266.299,50.811 258.729,50.794 255.973 C 50.787 254.837,50.265 253.868,49.873 254.261 M340.595 255.474 C 340.158 256.065,339.369 257.100,338.843 257.774 C 338.226 258.564,338.440 258.431,339.443 257.400 C 341.489 255.297,342.178 254.400,341.744 254.400 C 341.549 254.400,341.032 254.883,340.595 255.474 M62.886 260.598 C 64.143 261.898,65.229 262.881,65.300 262.781 C 65.371 262.682,64.343 261.617,63.015 260.417 L 60.600 258.233 62.886 260.598 M335.177 261.311 C 332.253 263.961,330.962 265.045,329.600 265.996 C 328.830 266.534,327.968 267.198,327.685 267.473 C 327.402 267.747,326.637 268.287,325.985 268.672 C 325.333 269.057,324.800 269.518,324.800 269.695 C 324.800 269.987,326.713 268.946,327.200 268.390 C 327.310 268.264,328.030 267.723,328.800 267.188 C 330.587 265.946,332.034 264.718,334.791 262.108 C 337.190 259.836,337.492 259.214,335.177 261.311 M67.099 264.520 C 68.846 266.056,71.537 268.123,72.400 268.592 C 73.302 269.081,72.584 268.445,69.104 265.669 C 65.772 263.011,64.656 262.372,67.099 264.520 M73.691 269.462 C 74.359 270.217,77.600 272.224,77.600 271.882 C 77.600 271.789,76.565 271.031,75.300 270.197 C 74.035 269.364,73.311 269.033,73.691 269.462 M323.029 270.609 C 322.605 270.929,322.338 271.271,322.435 271.369 C 322.532 271.466,323.059 271.202,323.606 270.782 C 324.153 270.361,324.420 270.020,324.200 270.022 C 323.980 270.024,323.453 270.288,323.029 270.609 M320.200 272.472 L 319.400 273.297 320.700 272.638 C 322.059 271.950,322.347 271.583,321.500 271.624 C 321.225 271.637,320.640 272.019,320.200 272.472 M80.000 273.567 C 80.963 274.352,81.600 274.608,81.600 274.210 C 81.600 274.106,81.015 273.735,80.300 273.386 L 79.000 272.752 80.000 273.567 M82.800 275.164 C 83.350 275.614,83.980 275.983,84.200 275.985 C 84.628 275.988,83.905 275.434,82.600 274.760 C 82.069 274.485,82.136 274.621,82.800 275.164 M309.870 277.879 C 309.248 278.205,308.810 278.543,308.896 278.629 C 309.143 278.876,311.600 277.861,311.600 277.512 C 311.600 277.092,311.211 277.174,309.870 277.879 M305.200 280.010 C 302.626 281.128,300.146 282.168,298.600 282.778 C 297.011 283.404,295.386 284.100,294.705 284.447 C 294.323 284.641,293.659 284.800,293.229 284.800 C 292.799 284.800,292.332 284.987,292.190 285.216 C 291.805 285.839,293.530 285.322,298.567 283.304 C 305.184 280.654,308.400 279.240,308.400 278.981 C 308.400 278.676,307.900 278.837,305.200 280.010 M93.200 280.400 C 93.970 280.822,94.780 281.166,95.000 281.166 C 95.220 281.166,94.770 280.822,94.000 280.400 C 93.230 279.978,92.420 279.634,92.200 279.634 C 91.980 279.634,92.430 279.978,93.200 280.400 M95.600 281.315 C 95.600 281.591,100.859 283.674,101.057 283.476 C 101.144 283.389,100.268 282.948,99.108 282.497 C 97.949 282.047,96.685 281.551,96.300 281.396 C 95.915 281.241,95.600 281.205,95.600 281.315 M289.800 286.000 C 289.664 286.220,289.124 286.400,288.600 286.400 C 288.076 286.400,287.532 286.587,287.390 286.816 C 287.092 287.299,288.733 286.958,290.600 286.151 C 291.620 285.709,291.669 285.629,290.924 285.616 C 290.442 285.607,289.936 285.780,289.800 286.000 M110.800 287.200 C 111.130 287.413,111.670 287.588,112.000 287.588 C 112.533 287.588,112.533 287.545,112.000 287.200 C 111.670 286.987,111.130 286.812,110.800 286.812 C 110.267 286.812,110.267 286.855,110.800 287.200 M285.000 287.600 C 284.708 288.073,285.099 288.073,286.200 287.600 C 286.971 287.269,286.969 287.255,286.124 287.228 C 285.642 287.213,285.136 287.380,285.000 287.600 M282.200 288.400 C 281.885 288.909,282.812 288.909,283.600 288.400 C 284.088 288.085,284.036 288.011,283.324 288.006 C 282.842 288.003,282.336 288.180,282.200 288.400 M279.600 289.200 C 279.600 289.669,279.907 289.669,281.000 289.200 C 281.709 288.895,281.675 288.853,280.700 288.828 C 280.095 288.813,279.600 288.980,279.600 289.200 M276.600 290.000 C 276.285 290.509,277.212 290.509,278.000 290.000 C 278.488 289.685,278.436 289.611,277.724 289.606 C 277.242 289.603,276.736 289.780,276.600 290.000 M273.800 290.800 C 273.485 291.309,274.412 291.309,275.200 290.800 C 275.688 290.485,275.636 290.411,274.924 290.406 C 274.442 290.403,273.936 290.580,273.800 290.800 M124.400 291.200 C 124.730 291.413,125.360 291.578,125.800 291.566 L 126.600 291.544 125.800 291.200 C 124.604 290.686,123.605 290.686,124.400 291.200 M270.600 291.600 C 270.308 292.073,270.699 292.073,271.800 291.600 C 272.571 291.269,272.569 291.255,271.724 291.228 C 271.242 291.213,270.736 291.380,270.600 291.600 M127.600 291.994 C 127.930 292.211,128.635 292.391,129.167 292.394 C 130.451 292.402,130.125 292.175,128.400 291.858 C 127.415 291.677,127.178 291.718,127.600 291.994 M267.200 292.400 C 267.200 292.901,267.624 292.901,268.400 292.400 C 268.885 292.086,268.828 292.011,268.100 292.006 C 267.605 292.003,267.200 292.180,267.200 292.400 M131.200 292.782 C 131.530 293.005,132.145 293.191,132.567 293.194 C 133.590 293.202,133.271 292.973,131.800 292.644 C 130.924 292.448,130.762 292.485,131.200 292.782 M263.400 293.200 C 263.085 293.709,264.012 293.709,264.800 293.200 C 265.288 292.885,265.236 292.811,264.524 292.806 C 264.042 292.803,263.536 292.980,263.400 293.200 M135.700 293.876 C 136.085 293.976,136.715 293.976,137.100 293.876 C 137.485 293.775,137.170 293.693,136.400 293.693 C 135.630 293.693,135.315 293.775,135.700 293.876 M259.000 294.000 L 257.800 294.305 259.000 294.325 C 259.660 294.335,260.560 294.189,261.000 294.000 L 261.800 293.656 261.000 293.675 C 260.560 293.686,259.660 293.832,259.000 294.000 M138.400 294.405 C 138.730 294.616,139.525 294.791,140.167 294.794 C 141.714 294.802,141.377 294.571,139.400 294.268 C 138.310 294.101,137.991 294.145,138.400 294.405 M254.600 294.800 L 253.400 295.105 254.800 295.147 C 255.570 295.169,256.470 295.013,256.800 294.800 C 257.539 294.323,256.476 294.323,254.600 294.800 M142.200 295.180 C 142.961 295.526,145.917 295.764,145.567 295.451 C 145.475 295.369,144.500 295.193,143.400 295.059 C 142.054 294.895,141.661 294.935,142.200 295.180 M250.000 295.600 L 248.600 295.895 250.000 295.919 C 250.770 295.933,251.760 295.789,252.200 295.600 L 253.000 295.256 252.200 295.281 C 251.760 295.294,250.770 295.438,250.000 295.600 M148.705 296.283 C 149.202 296.379,149.922 296.375,150.305 296.275 C 150.687 296.175,150.280 296.096,149.400 296.101 C 148.520 296.105,148.207 296.187,148.705 296.283 M243.800 296.418 C 242.480 296.581,239.690 296.930,237.600 297.195 C 232.414 297.853,226.895 298.284,217.200 298.791 C 203.403 299.512,198.236 299.991,206.800 299.755 C 218.096 299.444,227.939 298.763,237.600 297.625 C 239.470 297.405,242.505 297.050,244.344 296.835 C 246.183 296.621,247.788 296.345,247.911 296.223 C 248.173 295.961,247.093 296.012,243.800 296.418 M153.905 297.083 C 154.402 297.179,155.122 297.175,155.505 297.075 C 155.887 296.975,155.480 296.896,154.600 296.901 C 153.720 296.905,153.407 296.987,153.905 297.083 M157.600 297.585 C 158.370 297.764,160.350 298.009,162.000 298.129 C 164.046 298.277,164.491 298.244,163.400 298.025 C 161.139 297.571,155.800 297.166,157.600 297.585 M165.633 298.544 C 165.725 298.624,167.420 298.785,169.400 298.903 C 171.848 299.049,172.488 299.010,171.400 298.782 C 169.820 298.450,165.310 298.265,165.633 298.544 M174.033 299.346 C 174.125 299.427,176.540 299.587,179.400 299.702 C 182.696 299.835,183.794 299.796,182.400 299.596 C 180.155 299.273,173.731 299.081,174.033 299.346 M197.700 300.276 C 198.085 300.376,198.715 300.376,199.100 300.276 C 199.485 300.175,199.170 300.093,198.400 300.093 C 197.630 300.093,197.315 300.175,197.700 300.276 M348.204 310.253 C 347.872 311.047,347.600 311.818,347.600 311.966 C 347.600 315.265,336.081 328.634,329.200 333.321 C 328.210 333.996,327.310 334.655,327.200 334.787 C 325.916 336.329,305.383 347.600,303.857 347.600 C 303.711 347.600,302.738 347.978,301.696 348.440 C 300.653 348.902,299.440 349.432,299.000 349.618 C 297.834 350.110,290.372 352.847,289.200 353.212 C 272.614 358.377,261.181 360.974,243.400 363.616 C 232.525 365.233,217.476 366.400,207.512 366.400 C 201.822 366.400,199.956 366.516,200.291 366.851 C 201.052 367.612,224.429 366.534,235.800 365.214 C 243.751 364.291,251.656 363.103,257.200 361.998 C 258.410 361.757,260.120 361.460,261.000 361.339 C 261.880 361.217,262.771 360.956,262.980 360.759 C 263.189 360.562,264.033 360.400,264.856 360.400 C 265.679 360.400,266.464 360.220,266.600 360.000 C 266.736 359.780,267.546 359.600,268.400 359.600 C 269.254 359.600,270.064 359.420,270.200 359.200 C 270.336 358.980,270.829 358.800,271.295 358.800 C 271.762 358.800,272.696 358.632,273.372 358.427 C 274.047 358.222,275.410 357.841,276.400 357.581 C 277.390 357.320,278.650 356.969,279.200 356.800 C 279.750 356.631,281.010 356.264,282.000 355.984 C 291.575 353.275,299.902 350.195,306.956 346.750 C 308.252 346.118,309.557 345.600,309.856 345.600 C 310.155 345.600,310.400 345.420,310.400 345.200 C 310.400 344.980,310.760 344.800,311.200 344.800 C 311.640 344.800,312.000 344.620,312.000 344.400 C 312.000 344.180,312.345 344.000,312.767 344.000 C 313.188 344.000,313.593 343.865,313.667 343.700 C 313.740 343.535,314.700 342.951,315.800 342.402 C 317.857 341.376,325.266 336.951,327.400 335.474 C 333.229 331.440,344.000 320.951,344.000 319.308 C 344.000 319.029,344.150 318.800,344.332 318.800 C 344.515 318.800,344.920 318.305,345.232 317.700 C 345.544 317.095,345.899 316.510,346.023 316.400 C 346.146 316.290,346.860 314.940,347.611 313.400 C 348.630 311.308,349.009 310.819,349.111 311.466 C 349.334 312.889,350.400 312.989,350.400 311.587 C 350.400 309.395,348.934 308.504,348.204 310.253 M200.400 383.390 C 200.400 383.887,201.323 383.968,206.231 383.902 C 212.290 383.821,213.884 383.490,210.290 383.058 C 206.089 382.553,200.400 382.744,200.400 383.390 " stroke="none" fill="#9dacac" fill-rule="evenodd"></path></g></svg>